<?xml version="1.0" standalone="no"?>
<!DOCTYPE svg PUBLIC "-//W3C//DTD SVG 20010904//EN"
 "http://www.w3.org/TR/2001/REC-SVG-20010904/DTD/svg10.dtd">
<svg version="1.0" xmlns="http://www.w3.org/2000/svg"
 width="2880.000000pt" height="1800.000000pt" viewBox="0 0 2880.000000 1800.000000"
 preserveAspectRatio="xMidYMid meet">

<g transform="translate(0.000000,1800.000000) scale(0.100000,-0.100000)"
fill="#000000" stroke="none">
<path d="M3872 16410 c-10 -18 -23 -28 -32 -25 -57 16 -90 17 -96 1 -3 -9 -23
-19 -45 -22 -30 -5 -41 -13 -53 -39 -9 -18 -13 -41 -10 -50 6 -14 3 -16 -13
-11 -23 7 -38 -17 -48 -77 -5 -31 -2 -41 19 -62 14 -14 30 -25 36 -25 5 0 10
-18 10 -40 0 -29 4 -40 16 -40 8 0 20 -14 26 -31 13 -39 40 -35 53 9 7 25 14
32 28 28 11 -2 21 2 24 11 7 17 -61 83 -85 83 -13 0 -13 2 0 18 8 9 18 25 22
36 4 13 11 16 24 11 9 -4 27 -10 39 -12 12 -3 26 -17 31 -33 6 -15 26 -50 46
-79 34 -48 36 -55 36 -129 0 -90 -15 -122 -58 -120 -15 0 -44 -3 -64 -7 -29
-6 -38 -4 -38 6 0 21 -44 119 -53 119 -5 0 -7 -18 -6 -40 3 -43 -9 -66 -17
-33 -6 22 -42 43 -74 43 -25 0 -25 -12 0 -35 15 -14 17 -22 9 -37 -13 -25 -3
-55 22 -63 22 -7 24 -35 7 -100 -11 -40 -10 -47 9 -72 21 -29 76 -51 131 -52
51 -1 38 -15 -35 -37 -52 -15 -69 -25 -71 -40 -6 -41 159 -109 292 -120 53 -4
58 -3 46 11 -21 26 1 40 41 26 18 -6 33 -10 33 -9 13 37 36 63 54 61 12 -2 22
3 22 10 0 23 -17 39 -40 35 -13 -2 -26 3 -30 12 -4 8 -12 25 -18 37 -17 32
-15 129 2 145 8 8 11 27 8 55 -6 58 4 93 28 93 10 0 22 -5 25 -11 11 -17 36
-139 42 -199 5 -64 24 -90 65 -90 22 0 28 5 28 21 0 18 5 21 35 17 39 -4 46 6
15 22 -11 6 -27 24 -36 41 -15 31 -15 32 16 64 17 18 46 37 63 42 21 6 32 15
33 28 2 31 22 75 35 75 7 0 9 9 5 24 -4 16 -1 26 9 30 21 8 19 67 -4 144 -12
40 -17 77 -14 99 5 30 3 35 -9 30 -20 -7 -38 11 -31 30 3 8 -4 27 -16 43 -11
16 -21 33 -21 38 0 5 -15 15 -32 22 -56 20 -83 39 -80 53 1 8 -3 15 -10 14
-50 -2 -70 5 -75 23 -3 11 -12 20 -20 20 -9 0 -13 -6 -10 -14 10 -24 -5 -26
-39 -5 -28 17 -39 19 -71 10 -24 -7 -41 -7 -47 -1 -6 6 -7 10 -3 10 4 0 3 9
-3 20 -17 31 -58 26 -78 -10z m488 -230 c0 -11 -7 -20 -15 -20 -13 0 -14 4 -5
20 6 11 13 20 15 20 3 0 5 -9 5 -20z m-235 -140 c3 -5 -1 -10 -9 -10 -9 0 -16
5 -16 10 0 6 4 10 9 10 6 0 13 -4 16 -10z m-5 -89 c0 -18 -52 -71 -70 -71 -23
0 -35 16 -18 23 10 4 9 8 -2 16 -16 11 -15 13 15 29 24 14 75 16 75 3z"/>
<path d="M6945 16286 c-58 -26 -81 -66 -77 -132 3 -38 51 -74 129 -97 108 -31
136 -66 95 -117 -12 -15 -32 -23 -62 -26 -52 -5 -90 11 -105 44 -7 16 -18 22
-42 22 -38 0 -38 0 -19 -45 26 -62 109 -92 199 -73 71 15 98 43 105 107 4 47
2 55 -24 82 -19 20 -52 37 -99 51 -93 27 -115 42 -115 77 0 41 31 64 87 64 40
0 50 -4 73 -31 18 -22 35 -32 54 -32 24 0 26 3 21 23 -12 39 -33 64 -68 81
-42 19 -111 20 -152 2z"/>
<path d="M8187 16293 c-4 -3 -7 -40 -7 -81 l0 -74 -32 27 c-58 49 -151 20
-183 -58 -43 -107 8 -242 95 -248 51 -3 68 2 94 26 l26 24 0 -24 c0 -21 5 -25
30 -25 l30 0 0 220 0 220 -23 0 c-13 0 -27 -3 -30 -7z m-36 -182 c24 -25 29
-37 29 -81 0 -55 -19 -104 -45 -114 -62 -23 -114 14 -122 88 -13 111 70 175
138 107z"/>
<path d="M8500 16080 l0 -220 30 0 29 0 3 158 3 157 65 -157 c59 -146 66 -158
90 -158 23 0 30 12 84 148 33 81 63 151 68 156 4 6 8 -61 8 -147 l0 -157 30 0
30 0 0 220 0 220 -39 0 -38 0 -69 -170 c-38 -93 -71 -170 -74 -170 -3 0 -34
71 -70 158 -35 86 -68 163 -73 170 -5 6 -25 12 -43 12 l-34 0 0 -220z"/>
<path d="M25600 16280 c-19 -19 -20 -33 -20 -200 0 -233 -11 -220 180 -220
186 0 180 -6 180 173 l0 133 -68 67 -68 67 -92 0 c-79 0 -95 -3 -112 -20z
m182 -77 l3 -58 58 -3 58 -3 -3 -117 -3 -117 -135 0 -135 0 -3 165 c-1 90 0
170 2 177 4 9 28 13 80 13 l75 0 3 -57z m68 2 l23 -25 -26 0 c-22 0 -27 5 -27
25 0 14 1 25 3 25 2 0 14 -11 27 -25z"/>
<path d="M25665 16150 c-11 -18 10 -32 41 -28 40 4 38 32 -3 36 -17 2 -34 -2
-38 -8z"/>
<path d="M25665 16069 c-14 -22 14 -30 101 -27 71 2 89 6 89 18 0 12 -18 16
-92 18 -60 2 -94 -1 -98 -9z"/>
<path d="M25665 15989 c-14 -22 14 -30 101 -27 71 2 89 6 89 18 0 12 -18 16
-92 18 -60 2 -94 -1 -98 -9z"/>
<path d="M27125 16285 c-77 -27 -145 -124 -145 -205 0 -112 108 -220 220 -220
112 0 220 108 220 220 0 55 -23 106 -69 151 -66 66 -141 84 -226 54z m148 -41
c45 -23 66 -44 88 -86 59 -115 -30 -258 -161 -258 -131 0 -220 143 -161 258
45 89 151 128 234 86z"/>
<path d="M27145 16175 c-14 -13 -25 -29 -25 -34 0 -21 23 -22 45 -1 26 25 53
24 69 -3 9 -16 5 -23 -24 -48 -25 -21 -31 -32 -23 -40 14 -14 68 13 83 41 15
27 3 67 -27 90 -34 27 -69 25 -98 -5z"/>
<path d="M27184 15989 c-10 -17 13 -36 27 -22 12 12 4 33 -11 33 -5 0 -12 -5
-16 -11z"/>
<path d="M7310 16167 c-49 -32 -72 -77 -72 -141 -1 -68 26 -124 70 -149 63
-37 175 -18 203 34 20 39 -33 54 -64 19 -25 -30 -91 -27 -122 5 -14 13 -25 36
-25 50 l0 25 116 0 117 0 -7 48 c-7 56 -30 91 -77 114 -47 25 -99 23 -139 -5z
m131 -56 c50 -51 41 -61 -56 -61 -74 0 -85 2 -85 18 1 34 46 71 88 72 13 0 37
-13 53 -29z"/>
<path d="M7600 16025 l0 -165 29 0 29 0 4 116 c3 113 4 116 32 141 33 28 70
25 99 -9 14 -17 17 -40 17 -134 l0 -114 30 0 30 0 0 125 c0 139 -10 173 -55
193 -43 20 -90 15 -124 -14 l-31 -26 0 26 c0 22 -4 26 -30 26 l-30 0 0 -165z"/>
<path d="M9100 16173 c-52 -27 -82 -92 -78 -166 7 -94 61 -149 148 -149 89 0
142 55 148 155 4 69 -15 117 -61 151 -36 27 -113 32 -157 9z m117 -48 c48 -34
55 -145 12 -191 -32 -34 -90 -33 -118 2 -59 76 -22 204 59 204 14 0 35 -7 47
-15z"/>
<path d="M9397 16183 c-4 -3 -7 -78 -7 -165 l0 -158 35 0 35 0 0 119 c0 117 1
120 26 140 15 12 34 21 44 21 10 0 29 -9 44 -21 25 -20 26 -23 26 -140 l0
-119 35 0 35 0 0 95 c0 114 -14 187 -42 212 -31 28 -124 25 -148 -4 -23 -29
-30 -29 -30 2 0 20 -5 25 -23 25 -13 0 -27 -3 -30 -7z"/>
<path d="M9820 16172 c-66 -33 -100 -146 -66 -225 28 -67 98 -100 180 -86 47
8 108 65 85 80 -23 14 -45 10 -64 -11 -13 -14 -31 -20 -59 -20 -45 1 -66 13
-85 48 -24 46 -11 52 109 52 l110 0 0 38 c0 108 -111 174 -210 124z m125 -57
c14 -13 25 -33 25 -45 0 -19 -6 -20 -86 -20 -84 0 -85 0 -79 23 18 63 96 87
140 42z"/>
<path d="M10075 16173 c4 -10 32 -87 62 -171 l56 -153 -20 -27 c-12 -16 -30
-27 -44 -27 -19 0 -25 -6 -27 -28 -3 -24 0 -27 28 -27 43 0 84 23 99 57 19 40
141 375 141 386 0 4 -15 7 -32 5 -32 -3 -33 -4 -71 -126 -22 -68 -43 -120 -47
-115 -4 4 -25 61 -46 126 l-38 117 -34 0 c-29 0 -33 -3 -27 -17z"/>
<path d="M7926 14853 c-11 -11 -6 -23 9 -23 8 0 15 4 15 9 0 13 -16 22 -24 14z"/>
<path d="M8000 14735 c0 -70 4 -115 10 -115 6 0 10 45 10 115 0 70 -4 115 -10
115 -6 0 -10 -45 -10 -115z"/>
<path d="M8260 14735 c0 -70 4 -115 10 -115 6 0 10 7 10 17 0 15 1 15 18 0 37
-34 86 -15 101 38 22 82 -33 140 -100 105 -17 -10 -19 -7 -19 30 0 22 -4 40
-10 40 -6 0 -10 -45 -10 -115z m101 26 c26 -21 31 -80 9 -106 -17 -20 -60 -19
-76 3 -20 26 -17 79 6 102 25 25 32 25 61 1z"/>
<path d="M8460 14735 c0 -70 4 -115 10 -115 6 0 10 45 10 115 0 70 -4 115 -10
115 -6 0 -10 -45 -10 -115z"/>
<path d="M7414 14776 c-29 -22 -11 -29 24 -9 25 14 32 15 46 4 30 -25 20 -48
-24 -54 -67 -9 -91 -45 -52 -80 21 -19 45 -21 73 -7 13 7 19 7 19 0 0 -5 5
-10 10 -10 15 0 13 143 -2 158 -16 16 -70 15 -94 -2z m86 -89 c0 -31 -18 -47
-52 -47 -54 0 -45 54 10 63 15 2 30 5 35 6 4 0 7 -9 7 -22z"/>
<path d="M7564 14774 c4 -11 19 -50 33 -87 14 -37 30 -66 36 -64 9 3 67 141
67 159 0 5 -4 8 -9 8 -6 0 -20 -31 -32 -70 -13 -38 -25 -67 -28 -64 -3 3 -15
33 -27 67 -11 33 -26 63 -34 65 -9 3 -11 -1 -6 -14z"/>
<path d="M7763 14783 c-7 -2 -13 -11 -13 -19 0 -12 4 -12 25 2 14 9 32 13 45
9 19 -6 22 -10 24 -37 1 -7 -21 -17 -49 -23 -48 -10 -50 -11 -50 -45 0 -29 5
-36 28 -44 20 -8 34 -7 50 3 15 10 22 10 25 2 10 -31 22 -4 22 52 0 78 -17
107 -63 106 -18 0 -38 -3 -44 -6z m87 -91 c0 -32 -24 -54 -55 -50 -24 2 -30 8
-30 28 0 19 6 26 30 31 49 11 55 10 55 -9z"/>
<path d="M7920 14705 c0 -50 4 -85 10 -85 6 0 10 35 10 85 0 50 -4 85 -10 85
-6 0 -10 -35 -10 -85z"/>
<path d="M8090 14775 c-19 -23 -5 -29 23 -10 20 13 30 14 47 5 32 -17 21 -43
-24 -52 -51 -11 -68 -25 -64 -57 4 -34 49 -51 81 -32 15 10 22 10 25 2 2 -6 8
-11 13 -11 16 0 11 137 -7 154 -20 20 -78 21 -94 1z m90 -89 c0 -31 -22 -48
-57 -44 -41 4 -45 45 -6 54 15 3 33 7 38 9 21 7 25 4 25 -19z"/>
<path d="M8547 14773 c-24 -27 -31 -70 -17 -104 14 -33 37 -49 72 -49 28 0 66
25 55 36 -4 4 -13 2 -19 -4 -15 -15 -61 -15 -76 0 -7 7 -12 20 -12 30 0 15 9
18 60 18 33 0 60 4 60 9 0 19 -21 66 -33 73 -22 14 -74 8 -90 -9z m91 -21 c21
-26 14 -32 -38 -32 -55 0 -67 17 -29 44 23 16 47 12 67 -12z"/>
<path d="M3194 14765 c-9 -23 3 -45 24 -45 25 0 44 23 36 44 -8 20 -53 21 -60
1z"/>
<path d="M4444 14765 c-10 -25 22 -53 44 -39 9 6 17 20 17 30 0 25 -52 33 -61
9z"/>
<path d="M5154 14765 c-10 -25 22 -53 44 -39 9 6 17 20 17 30 0 25 -52 33 -61
9z"/>
<path d="M2300 14596 l0 -176 25 0 25 0 0 122 c0 69 4 118 9 113 4 -6 28 -61
52 -122 37 -95 47 -113 66 -113 21 0 27 11 102 195 l20 50 0 -122 1 -123 30 0
30 0 0 175 0 175 -38 0 -38 0 -49 -120 c-27 -67 -52 -123 -55 -125 -4 -3 -30
50 -57 118 l-50 122 -37 3 -36 3 0 -175z"/>
<path d="M3600 14595 l0 -175 30 0 30 0 0 175 0 175 -30 0 -30 0 0 -175z"/>
<path d="M4140 14595 l0 -175 30 0 30 0 0 66 0 65 33 -3 c28 -3 36 -11 65 -65
31 -59 35 -63 68 -63 l35 0 -37 66 -36 65 25 27 c34 36 42 81 23 126 -20 48
-63 66 -161 66 l-75 0 0 -175z m158 109 c27 -19 30 -71 5 -90 -10 -7 -37 -14
-60 -14 l-43 0 0 60 0 60 38 0 c21 0 48 -7 60 -16z"/>
<path d="M4570 14595 l0 -175 30 0 c24 0 30 4 30 22 l0 21 23 -21 c15 -15 36
-22 61 -22 99 0 143 155 66 232 -36 36 -92 39 -127 6 l-23 -21 0 66 0 67 -30
0 -30 0 0 -175z m177 -9 c10 -28 10 -44 0 -73 -10 -33 -17 -38 -45 -41 -41 -4
-58 9 -66 51 -8 45 6 90 34 104 34 17 63 1 77 -41z"/>
<path d="M2756 14659 c-14 -11 -26 -27 -26 -35 0 -19 47 -18 67 2 19 19 62 15
77 -8 15 -25 0 -36 -64 -48 -69 -13 -90 -32 -90 -81 0 -46 27 -69 80 -69 20 0
46 7 58 16 20 14 22 14 22 0 0 -11 10 -16 30 -16 l30 0 0 95 c0 140 -17 165
-116 165 -27 0 -51 -7 -68 -21z m124 -139 c0 -45 -72 -79 -99 -46 -17 20 -3
45 33 55 51 15 66 13 66 -9z"/>
<path d="M3000 14550 l0 -130 29 0 29 0 4 91 c3 98 15 119 65 119 18 0 23 6
23 25 0 21 -5 25 -29 25 -20 0 -35 -8 -45 -22 l-16 -22 0 22 c0 18 -6 22 -30
22 l-30 0 0 -130z"/>
<path d="M3190 14550 l0 -130 30 0 30 0 0 130 0 130 -30 0 -30 0 0 -130z"/>
<path d="M3348 14651 c-31 -28 -33 -33 -33 -101 0 -68 2 -73 33 -101 27 -25
41 -29 88 -29 45 0 59 4 79 25 14 13 25 28 25 33 0 19 -47 19 -70 0 -29 -23
-55 -23 -80 2 -40 40 -28 50 65 50 98 0 105 6 86 70 -16 54 -52 80 -112 80
-40 0 -55 -5 -81 -29z m123 -32 c31 -31 19 -44 -44 -47 -64 -3 -74 11 -37 48
26 26 55 25 81 -1z"/>
<path d="M3758 14651 c-31 -28 -33 -33 -33 -101 0 -68 2 -73 33 -101 27 -25
41 -29 88 -29 45 0 59 4 79 25 14 13 25 28 25 33 0 19 -47 19 -70 0 -29 -23
-55 -23 -80 2 -40 40 -28 50 65 50 98 0 105 6 86 70 -16 54 -52 80 -112 80
-40 0 -55 -5 -81 -29z m123 -32 c31 -31 19 -44 -44 -47 -64 -3 -74 11 -37 48
26 26 55 25 81 -1z"/>
<path d="M4450 14550 l0 -130 30 0 30 0 0 130 0 130 -30 0 -30 0 0 -130z"/>
<path d="M4922 14667 c-79 -44 -80 -192 -1 -232 15 -8 49 -15 74 -15 39 0 52
5 78 33 l32 32 -27 3 c-15 2 -38 -4 -50 -12 -12 -9 -31 -16 -41 -16 -19 0 -67
42 -67 60 0 6 34 10 90 10 l90 0 0 36 c0 44 -25 88 -57 103 -32 15 -93 13
-121 -2z m96 -43 c12 -8 22 -24 22 -35 0 -16 -7 -19 -54 -19 -30 0 -58 4 -61
10 -7 12 39 60 57 60 8 0 24 -7 36 -16z"/>
<path d="M5160 14550 l0 -130 30 0 30 0 0 130 0 130 -30 0 -30 0 0 -130z"/>
<path d="M5280 14550 l0 -130 29 0 29 0 4 91 c3 98 15 119 65 119 18 0 23 6
23 25 0 21 -5 25 -29 25 -20 0 -35 -8 -45 -22 l-16 -22 0 22 c0 18 -6 22 -30
22 l-30 0 0 -130z"/>
<path d="M5510 14667 c-31 -15 -60 -71 -60 -117 0 -46 29 -102 60 -117 34 -17
95 -16 129 2 29 14 61 76 61 115 0 39 -32 101 -61 115 -34 18 -95 19 -129 2z
m90 -37 c48 -25 42 -142 -7 -161 -72 -27 -116 110 -50 156 25 18 32 18 57 5z"/>
<path d="M3217 13832 c-18 -19 -23 -42 -9 -42 4 0 13 9 20 20 7 11 21 20 31
20 71 0 69 -47 -4 -127 -30 -34 -55 -66 -55 -72 0 -7 26 -11 70 -11 40 0 70 4
70 10 0 6 -25 10 -55 10 -30 0 -55 3 -55 7 0 3 23 30 50 59 55 58 65 98 32
127 -25 22 -75 21 -95 -1z"/>
<path d="M3420 13828 c-16 -15 -19 -23 -10 -26 7 -3 17 3 22 12 11 20 61 21
78 1 20 -24 -3 -65 -35 -65 -33 0 -32 -18 1 -22 15 -2 33 -12 40 -23 31 -47
-44 -88 -88 -48 -10 9 -21 13 -25 9 -12 -12 22 -36 59 -43 30 -4 41 -1 62 20
32 32 33 52 2 80 -24 22 -24 23 -5 35 23 15 24 40 3 70 -20 29 -72 30 -104 0z"/>
<path d="M3658 13832 c-28 -17 -36 -32 -19 -32 6 0 13 5 16 10 3 6 13 10 21
10 11 0 14 -20 14 -100 0 -60 4 -100 10 -100 6 0 10 45 10 115 0 125 -2 129
-52 97z"/>
<path d="M3837 13832 c-18 -19 -23 -42 -9 -42 4 0 13 9 20 20 7 11 21 20 31
20 71 0 69 -47 -4 -127 -30 -34 -55 -66 -55 -72 0 -7 26 -11 70 -11 40 0 70 4
70 10 0 6 -25 10 -55 10 -30 0 -55 3 -55 7 0 3 23 30 50 59 55 58 65 98 32
127 -25 22 -75 21 -95 -1z"/>
<path d="M4010 13840 c0 -5 16 -10 35 -10 l35 0 0 -105 c0 -63 4 -105 10 -105
6 0 10 42 10 105 l0 105 40 0 c22 0 40 5 40 10 0 6 -35 10 -85 10 -50 0 -85
-4 -85 -10z"/>
<path d="M4270 13773 c-27 -43 -50 -84 -50 -90 0 -9 18 -13 55 -13 52 0 55 -1
55 -25 0 -14 5 -25 10 -25 6 0 10 11 10 25 0 16 6 25 15 25 8 0 15 5 15 10 0
6 -7 10 -15 10 -12 0 -15 16 -15 80 0 104 -14 105 -80 3z m60 -23 l0 -60 -46
0 -46 0 17 27 c10 14 26 41 37 60 11 18 24 33 29 33 5 0 9 -27 9 -60z"/>
<path d="M4450 13826 c0 -13 -3 -38 -6 -56 l-7 -32 41 7 c33 5 44 3 61 -14 25
-25 26 -39 5 -69 -18 -26 -50 -28 -76 -5 -10 9 -21 13 -26 9 -11 -12 37 -46
65 -46 32 0 73 42 73 75 0 14 -11 37 -26 51 -21 22 -31 25 -61 19 -31 -5 -35
-4 -29 10 3 9 6 25 6 36 0 16 7 19 50 19 28 0 50 5 50 10 0 6 -27 10 -60 10
-56 0 -60 -1 -60 -24z"/>
<path d="M4640 13734 l0 -116 60 4 c37 3 67 11 77 20 22 23 20 69 -5 86 -20
13 -20 14 -1 33 14 14 18 27 14 42 -11 35 -35 47 -92 47 l-53 0 0 -116z m120
76 c19 -36 -3 -60 -55 -60 l-45 0 0 40 0 40 45 0 c34 0 47 -5 55 -20z m0 -100
c11 -11 20 -24 20 -29 0 -23 -34 -41 -76 -41 l-44 0 0 45 0 45 40 0 c27 0 47
-7 60 -20z"/>
<path d="M15322 13438 c-35 -43 -43 -269 -11 -333 l14 -30 155 0 155 0 15 30
c21 42 21 268 0 310 l-15 30 -151 3 c-114 2 -154 -1 -162 -10z"/>
<path d="M8451 13409 c-6 -18 -11 -85 -11 -149 0 -64 5 -131 11 -149 l11 -31
158 0 158 0 11 31 c6 18 11 85 11 149 0 64 -5 131 -11 149 l-11 31 -158 0
-158 0 -11 -31z m248 -71 c39 -38 71 -72 71 -78 0 -11 -138 -145 -150 -145
-11 0 -150 133 -150 144 0 11 143 152 152 148 3 -1 38 -32 77 -69z"/>
<path d="M8582 13338 c-19 -19 -14 -38 12 -38 13 0 35 -9 49 -20 32 -25 37
-25 37 3 0 53 -64 89 -98 55z"/>
<path d="M8567 13284 c-12 -13 -8 -69 8 -91 23 -32 54 -35 81 -8 30 30 30 46
2 72 -25 22 -79 38 -91 27z"/>
<path d="M9727 13364 c-8 -8 1 -24 14 -24 5 0 9 7 9 15 0 15 -12 20 -23 9z"/>
<path d="M17707 13363 c-12 -11 -8 -23 8 -23 8 0 15 7 15 15 0 16 -12 20 -23
8z"/>
<path d="M7150 13260 c0 -60 4 -100 10 -100 6 0 10 20 10 45 l0 45 45 0 c25 0
45 5 45 10 0 6 -20 10 -45 10 -45 0 -45 0 -45 35 0 35 0 35 44 35 25 0 48 5
51 10 4 6 -17 10 -54 10 l-61 0 0 -100z"/>
<path d="M9140 13260 l0 -100 46 0 c64 0 84 13 84 56 0 21 -6 37 -15 40 -12 5
-12 9 2 30 14 22 14 26 -1 49 -14 21 -24 25 -66 25 l-50 0 0 -100z m99 56 c4
-23 -24 -46 -56 -46 -20 0 -23 5 -23 36 0 35 1 35 37 32 28 -2 39 -8 42 -22z
m9 -95 c4 -29 -12 -41 -55 -41 -31 0 -33 2 -33 36 l0 35 43 -3 c36 -3 43 -7
45 -27z"/>
<path d="M9790 13260 c0 -82 3 -100 15 -100 12 0 15 18 15 100 0 82 -3 100
-15 100 -12 0 -15 -18 -15 -100z"/>
<path d="M14350 13350 c0 -5 16 -10 35 -10 l35 0 0 -90 c0 -53 4 -90 10 -90 6
0 10 37 10 90 l0 90 30 0 c17 0 30 5 30 10 0 6 -32 10 -75 10 -43 0 -75 -4
-75 -10z"/>
<path d="M16010 13260 l0 -100 60 0 c33 0 60 4 60 10 0 6 -22 10 -50 10 l-50
0 0 35 c0 35 0 35 45 35 25 0 45 5 45 10 0 6 -20 10 -45 10 -45 0 -45 0 -45
35 l0 35 50 0 c28 0 50 5 50 10 0 6 -27 10 -60 10 l-60 0 0 -100z"/>
<path d="M17340 13276 c0 -76 2 -86 22 -100 31 -22 84 -20 108 4 17 17 20 33
20 100 0 47 -4 80 -10 80 -6 0 -10 -31 -10 -73 0 -80 -15 -107 -58 -107 -39 0
-52 26 -52 106 0 43 -4 74 -10 74 -6 0 -10 -35 -10 -84z"/>
<path d="M7300 13234 c0 -58 3 -74 15 -74 10 0 15 16 17 63 3 56 5 62 26 65
38 6 24 21 -18 20 l-40 0 0 -74z"/>
<path d="M7416 13288 c-22 -31 -20 -84 4 -108 25 -25 72 -26 93 -2 23 26 22
94 -1 115 -27 25 -78 22 -96 -5z m82 -10 c17 -17 15 -73 -2 -88 -42 -34 -92
22 -68 75 13 27 49 34 70 13z"/>
<path d="M7570 13235 c0 -43 4 -75 10 -75 6 0 10 22 10 48 0 55 18 86 46 80
16 -3 19 -13 22 -66 4 -75 22 -83 22 -9 0 63 10 80 41 75 22 -3 24 -8 27 -65
4 -82 22 -82 22 0 0 67 -10 87 -45 87 -12 0 -26 -5 -33 -12 -9 -9 -15 -9 -24
0 -7 7 -21 12 -33 12 -12 0 -26 -5 -33 -12 -9 -9 -12 -9 -12 0 0 7 -4 12 -10
12 -6 0 -10 -32 -10 -75z"/>
<path d="M7824 13296 c-8 -22 3 -33 18 -18 9 9 9 15 0 24 -9 9 -13 7 -18 -6z"/>
<path d="M9310 13234 c0 -58 3 -74 15 -74 10 0 15 16 17 63 3 56 5 62 26 65
38 6 24 21 -18 20 l-40 0 0 -74z"/>
<path d="M9431 13297 c-14 -18 -2 -30 15 -16 18 15 58 7 62 -12 2 -12 -8 -18
-37 -23 -47 -7 -68 -34 -51 -66 12 -23 59 -27 78 -8 9 9 12 9 12 0 0 -7 5 -12
10 -12 14 0 13 123 -2 138 -16 16 -73 15 -87 -1z m79 -80 c0 -20 -22 -37 -47
-37 -22 0 -33 27 -16 43 12 13 63 7 63 -6z"/>
<path d="M9580 13300 c0 -5 18 -10 41 -10 l40 0 -45 -58 c-25 -32 -46 -61 -46
-65 0 -4 27 -7 60 -7 33 0 60 4 60 10 0 6 -18 10 -40 10 -22 0 -40 2 -40 5 0
3 18 30 40 59 22 29 40 56 40 59 0 4 -25 7 -55 7 -30 0 -55 -4 -55 -10z"/>
<path d="M9730 13235 c0 -43 4 -75 10 -75 6 0 10 32 10 75 0 43 -4 75 -10 75
-6 0 -10 -32 -10 -75z"/>
<path d="M14526 13285 c-22 -33 -20 -67 5 -99 38 -49 101 -27 115 40 13 69
-82 117 -120 59z m82 -7 c7 -7 12 -26 12 -43 0 -59 -58 -78 -79 -27 -24 57 27
110 67 70z"/>
<path d="M14694 13296 c-8 -22 3 -33 18 -18 9 9 9 15 0 24 -9 9 -13 7 -18 -6z"/>
<path d="M16170 13254 c0 -30 5 -64 10 -75 12 -22 49 -25 69 -6 11 10 14 10
18 0 12 -34 23 -5 23 62 0 43 -4 75 -10 75 -5 0 -10 -17 -10 -37 0 -55 -10
-82 -32 -88 -32 -11 -48 12 -48 71 0 30 -4 54 -10 54 -5 0 -10 -25 -10 -56z"/>
<path d="M16330 13235 c0 -43 4 -75 10 -75 6 0 10 21 10 46 0 55 14 84 40 84
11 0 20 5 20 10 0 14 -33 13 -48 -2 -9 -9 -12 -9 -12 0 0 7 -4 12 -10 12 -6 0
-10 -32 -10 -75z"/>
<path d="M16447 13292 c-23 -26 -22 -94 1 -115 25 -23 68 -21 92 3 24 24 26
77 4 108 -19 28 -74 30 -97 4z m85 -27 c24 -53 -26 -109 -68 -75 -17 15 -19
71 -2 88 21 21 57 14 70 -13z"/>
<path d="M16600 13205 c0 -63 4 -105 10 -105 6 0 10 19 10 42 0 33 3 39 12 30
20 -20 65 -14 82 10 22 31 20 91 -2 111 -22 20 -63 22 -80 5 -9 -9 -12 -9 -12
0 0 7 -4 12 -10 12 -6 0 -10 -42 -10 -105z m98 73 c16 -16 15 -60 -1 -82 -19
-26 -59 -17 -71 16 -19 55 34 104 72 66z"/>
<path d="M16781 13284 c-12 -15 -21 -37 -21 -49 0 -38 37 -75 75 -75 18 0 38
7 45 15 16 19 5 34 -12 17 -25 -25 -78 -8 -78 25 0 9 16 13 54 13 l55 0 -10
32 c-10 37 -24 48 -61 48 -17 0 -34 -9 -47 -26z m79 2 c0 -2 3 -11 6 -20 5
-13 -2 -16 -35 -16 -44 0 -44 0 -35 24 5 14 64 24 64 12z"/>
<path d="M16941 13296 c-8 -9 -8 -16 -2 -20 5 -4 12 -2 16 4 3 5 19 10 36 10
21 0 29 -5 29 -18 0 -13 -12 -21 -42 -28 -34 -7 -44 -14 -46 -32 -6 -37 15
-52 70 -50 l50 1 -4 57 c-2 32 -10 65 -17 74 -17 20 -74 21 -90 2z m77 -88
c-4 -29 -55 -39 -65 -13 -7 20 12 35 45 35 19 0 23 -5 20 -22z"/>
<path d="M17090 13235 c0 -43 4 -75 10 -75 6 0 10 24 10 53 0 57 12 77 46 77
27 0 34 -17 34 -81 0 -27 5 -49 10 -49 13 0 13 106 0 131 -12 22 -59 26 -78 7
-9 -9 -12 -9 -12 0 0 7 -4 12 -10 12 -6 0 -10 -32 -10 -75z"/>
<path d="M17540 13235 c0 -43 4 -75 10 -75 6 0 10 24 10 53 0 57 12 77 46 77
27 0 34 -17 34 -81 0 -27 5 -49 10 -49 13 0 13 106 0 131 -12 22 -59 26 -78 7
-9 -9 -12 -9 -12 0 0 7 -4 12 -10 12 -6 0 -10 -32 -10 -75z"/>
<path d="M17700 13235 c0 -60 3 -75 15 -75 12 0 15 15 15 75 0 60 -3 75 -15
75 -12 0 -15 -15 -15 -75z"/>
<path d="M17781 13284 c-12 -15 -21 -37 -21 -49 0 -35 37 -75 70 -75 32 0 70
39 70 72 0 22 -18 60 -34 70 -24 17 -65 8 -85 -18z m88 -21 c16 -36 -2 -83
-33 -83 -31 0 -46 19 -46 55 0 58 56 78 79 28z"/>
<path d="M17940 13235 c0 -91 17 -100 22 -12 4 67 1 87 -13 87 -5 0 -9 -34 -9
-75z"/>
<path d="M17975 13301 c-3 -5 7 -11 22 -13 27 -3 28 -6 31 -65 2 -47 7 -63 17
-63 11 0 15 13 15 50 0 68 -16 100 -51 100 -15 0 -30 -4 -34 -9z"/>
<path d="M7815 13181 c-7 -12 12 -24 25 -16 11 7 4 25 -10 25 -5 0 -11 -4 -15
-9z"/>
<path d="M14685 13181 c-7 -12 12 -24 25 -16 11 7 4 25 -10 25 -5 0 -11 -4
-15 -9z"/>
<path d="M24144 12846 c-10 -26 4 -48 28 -44 17 2 23 10 23 28 0 18 -6 26 -23
28 -13 2 -25 -3 -28 -12z"/>
<path d="M20900 12675 l0 -175 30 0 30 0 0 60 0 60 50 0 c65 0 108 22 126 65
18 44 18 59 -2 100 -22 47 -66 65 -158 65 l-76 0 0 -175z m158 109 c15 -10 22
-25 22 -46 0 -46 -25 -68 -77 -68 l-43 0 0 65 0 65 38 0 c21 0 48 -7 60 -16z"/>
<path d="M23050 12676 l0 -176 71 0 c91 0 144 16 174 52 49 58 56 158 15 225
-29 48 -72 66 -172 71 l-88 4 0 -176z m187 98 c49 -31 54 -144 9 -189 -24 -24
-105 -43 -125 -30 -12 7 -15 227 -4 239 11 11 94 -3 120 -20z"/>
<path d="M24270 12676 l0 -176 30 0 30 0 -2 173 -3 172 -27 3 -28 3 0 -175z"/>
<path d="M24780 12675 l0 -175 110 0 110 0 0 25 c0 25 -1 25 -80 25 l-80 0 0
50 0 50 75 0 c73 0 75 1 75 25 0 24 -2 25 -75 25 l-75 0 0 50 0 50 80 0 c79 0
80 0 80 25 l0 25 -110 0 -110 0 0 -175z"/>
<path d="M22760 12790 c0 -20 -5 -30 -15 -30 -9 0 -15 -9 -15 -25 0 -15 6 -25
14 -25 10 0 15 -22 18 -85 5 -101 20 -125 80 -125 21 0 38 4 38 9 0 23 -14 41
-30 41 -22 0 -30 27 -30 102 0 54 1 57 28 60 19 2 28 9 30 25 3 17 -2 22 -25
25 -22 2 -29 9 -31 31 -3 23 -8 27 -33 27 -26 0 -29 -3 -29 -30z"/>
<path d="M23700 12790 c0 -23 -4 -30 -20 -30 -14 0 -20 -7 -20 -21 0 -12 8
-23 20 -26 18 -5 20 -14 20 -89 0 -98 16 -124 75 -124 30 0 35 3 35 24 0 18
-6 25 -22 28 -21 3 -23 9 -26 81 -3 77 -3 77 23 77 20 0 25 5 25 25 0 20 -5
25 -25 25 -21 0 -25 5 -25 30 0 27 -3 30 -30 30 -27 0 -30 -3 -30 -30z"/>
<path d="M21226 12739 c-14 -11 -26 -27 -26 -35 0 -19 47 -18 67 2 19 19 62
15 77 -8 15 -25 0 -36 -64 -48 -69 -13 -90 -32 -90 -81 0 -46 27 -69 80 -69
20 0 46 7 58 16 20 14 22 14 22 0 0 -11 10 -16 30 -16 l30 0 0 95 c0 140 -17
165 -116 165 -27 0 -51 -7 -68 -21z m124 -139 c0 -45 -72 -79 -99 -46 -17 20
-3 45 33 55 51 15 66 13 66 -9z"/>
<path d="M21451 12733 c6 -16 28 -76 49 -135 35 -96 37 -108 24 -127 -9 -12
-23 -21 -33 -21 -23 0 -35 -36 -15 -44 23 -9 72 5 90 25 14 15 123 299 124
322 0 4 -13 7 -30 7 -28 0 -30 -3 -56 -87 -14 -49 -29 -91 -33 -96 -4 -4 -20
35 -36 88 l-28 95 -33 0 c-32 0 -33 -1 -23 -27z"/>
<path d="M21740 12630 l0 -130 30 0 30 0 0 88 c0 102 11 125 55 120 l30 -3 3
-102 3 -103 29 0 30 0 0 86 c0 101 9 124 50 124 41 0 50 -23 50 -124 l0 -86
30 0 30 0 0 89 c0 97 -12 146 -40 161 -32 17 -85 12 -105 -10 l-18 -20 -19 20
c-25 27 -81 27 -108 0 l-20 -20 0 20 c0 16 -7 20 -30 20 l-30 0 0 -130z"/>
<path d="M22211 12744 c-50 -36 -66 -134 -31 -192 23 -38 54 -52 116 -52 38 0
51 5 77 32 l32 32 -30 6 c-19 4 -34 2 -41 -6 -20 -25 -58 -26 -87 -4 -50 40
-37 50 63 50 l90 0 0 30 c0 38 -23 84 -52 104 -29 21 -107 20 -137 0z m107
-40 c12 -8 22 -24 22 -35 0 -16 -7 -19 -54 -19 -64 0 -77 12 -45 46 26 28 46
30 77 8z"/>
<path d="M22460 12630 l0 -130 30 0 30 0 0 93 c0 101 7 117 50 117 43 0 50
-16 50 -117 l0 -93 30 0 30 0 0 104 c0 89 -3 107 -21 130 -27 34 -91 37 -126
4 l-23 -21 0 21 c0 17 -6 22 -25 22 l-25 0 0 -130z"/>
<path d="M23428 12731 c-31 -28 -33 -33 -33 -101 0 -68 2 -73 33 -101 27 -25
41 -29 88 -29 45 0 59 4 79 25 14 13 25 28 25 33 0 19 -47 19 -70 0 -29 -23
-55 -23 -80 2 -40 40 -28 50 65 50 98 0 105 6 86 70 -16 54 -52 80 -112 80
-40 0 -55 -5 -81 -29z m123 -32 c31 -31 19 -44 -44 -47 -64 -3 -74 11 -37 48
26 26 55 25 81 -1z"/>
<path d="M23887 12728 l-32 -33 27 -3 c15 -2 38 4 52 13 30 20 71 14 80 -12
10 -24 -4 -33 -64 -42 -90 -14 -124 -77 -73 -133 20 -23 90 -24 121 -2 20 14
22 14 22 0 0 -11 10 -16 31 -16 l31 0 -4 106 c-3 102 -4 107 -31 130 -22 18
-40 24 -78 24 -44 0 -55 -4 -82 -32z m129 -135 c-12 -50 -69 -71 -97 -37 -24
30 14 60 80 63 20 1 22 -2 17 -26z"/>
<path d="M24140 12630 l0 -130 30 0 30 0 0 130 0 130 -30 0 -30 0 0 -130z"/>
<path d="M24416 12739 c-19 -15 -26 -30 -26 -53 0 -43 23 -63 89 -77 57 -12
75 -34 46 -55 -26 -19 -52 -17 -74 5 -22 22 -76 18 -67 -6 3 -8 6 -16 6 -19 0
-2 13 -10 30 -19 56 -29 158 -11 174 30 21 56 -3 87 -84 107 -38 10 -56 20
-58 32 -7 34 54 50 78 21 16 -19 60 -20 60 -1 0 28 -50 56 -100 56 -33 0 -55
-6 -74 -21z"/>
<path d="M25089 12696 l39 -64 -20 -33 c-11 -19 -29 -49 -40 -66 l-20 -33 31
0 c26 0 36 7 59 46 31 49 35 48 66 -13 13 -26 23 -33 46 -33 17 0 30 3 30 6 0
3 -16 32 -36 65 l-37 59 37 61 c20 33 36 62 36 65 0 2 -13 4 -29 4 -24 0 -34
-8 -56 -47 l-28 -46 -23 39 c-13 21 -24 42 -24 47 0 4 -16 7 -35 7 l-35 0 39
-64z"/>
<path d="M25340 12579 l0 -180 28 3 c26 3 27 6 30 66 3 62 3 62 25 47 30 -21
79 -19 109 5 36 28 51 72 46 132 -4 42 -11 57 -37 80 -40 35 -94 38 -128 6
l-23 -21 0 21 c0 17 -6 22 -25 22 l-25 0 0 -181z m168 100 c15 -28 10 -93 -9
-115 -8 -10 -25 -14 -48 -12 -32 3 -37 8 -48 40 -16 47 -1 106 30 117 29 11
59 -1 75 -30z"/>
<path d="M25640 12630 l0 -130 30 0 30 0 0 95 c0 83 2 96 19 105 11 5 29 10
40 10 16 0 21 6 21 25 0 20 -5 25 -25 25 -13 0 -33 -10 -45 -22 l-20 -22 0 22
c0 17 -6 22 -25 22 l-25 0 0 -130z"/>
<path d="M25850 12733 c-88 -79 -38 -233 76 -233 63 0 114 30 114 66 0 11 -52
2 -78 -13 -25 -14 -34 -15 -56 -5 -15 6 -30 22 -35 34 -8 23 -7 23 83 28 l91
5 -3 30 c-7 79 -44 115 -116 115 -36 0 -52 -6 -76 -27z m119 -39 c11 -15 18
-30 15 -35 -3 -5 -30 -9 -60 -9 -47 0 -54 3 -54 19 0 22 35 51 61 51 10 0 27
-12 38 -26z"/>
<path d="M26134 12748 c-29 -14 -46 -52 -35 -81 12 -32 29 -44 83 -57 59 -15
75 -32 53 -54 -22 -21 -58 -20 -79 3 -11 12 -25 16 -41 13 -31 -6 -31 -16 0
-47 20 -21 34 -25 80 -25 49 0 60 4 86 29 56 57 27 107 -72 125 -46 8 -67 30
-49 51 7 8 23 15 36 15 12 0 29 -7 38 -15 17 -17 66 -20 66 -5 0 6 -11 22 -25
35 -19 20 -34 25 -72 24 -26 0 -58 -5 -69 -11z"/>
<path d="M26386 12739 c-25 -20 -33 -50 -20 -84 8 -20 48 -40 97 -49 42 -8 56
-28 37 -51 -17 -20 -56 -19 -78 3 -12 12 -26 16 -47 12 l-30 -6 32 -32 c28
-28 38 -32 88 -32 46 0 60 4 80 25 29 29 33 75 8 97 -10 9 -44 23 -75 32 -32
9 -58 22 -58 29 0 35 57 50 80 22 16 -19 60 -20 60 -1 0 28 -50 56 -100 56
-33 0 -55 -6 -74 -21z"/>
<path d="M1884 12427 c-3 -8 -4 -36 -2 -63 l3 -49 60 0 60 0 0 60 0 60 -58 3
c-42 2 -59 -1 -63 -11z m106 -52 l0 -45 -45 0 -45 0 0 45 0 45 45 0 45 0 0
-45z"/>
<path d="M2034 12427 c-3 -8 -4 -36 -2 -63 l3 -49 60 0 60 0 0 60 0 60 -58 3
c-42 2 -59 -1 -63 -11z m106 -52 l0 -45 -45 0 -45 0 0 45 0 45 45 0 45 0 0
-45z"/>
<path d="M3224 12429 c-7 -12 15 -31 28 -23 4 3 8 12 8 20 0 17 -26 19 -36 3z"/>
<path d="M2541 12404 c-12 -15 -21 -30 -21 -33 0 -21 37 -52 81 -66 45 -15 50
-20 47 -43 -3 -23 -8 -27 -39 -30 -23 -2 -40 2 -49 12 -14 18 -40 21 -40 6 0
-5 9 -19 20 -30 29 -29 99 -28 128 3 41 43 21 82 -54 107 -59 20 -73 53 -29
70 27 10 65 -1 65 -20 0 -6 7 -10 15 -10 8 0 15 6 15 13 0 26 -36 47 -78 47
-32 0 -45 -6 -61 -26z"/>
<path d="M2773 12370 c-56 -22 -69 -114 -22 -152 28 -24 81 -23 103 1 23 25 4
37 -26 17 -29 -18 -68 -5 -68 24 0 18 6 20 60 20 l60 0 -6 28 c-12 50 -58 79
-101 62z m55 -32 c24 -24 13 -38 -28 -38 -26 0 -40 5 -40 13 0 18 21 37 40 37
9 0 21 -5 28 -12z"/>
<path d="M2972 12364 c-12 -8 -22 -10 -22 -5 0 6 -7 11 -15 11 -12 0 -15 -16
-15 -85 0 -69 3 -85 15 -85 12 0 15 13 15 58 0 64 5 76 38 86 12 4 22 14 22
22 0 18 -10 18 -38 -2z"/>
<path d="M3349 12368 c-49 -16 -65 -95 -28 -142 27 -34 79 -36 111 -4 22 22
22 23 3 27 -10 2 -21 -2 -23 -8 -2 -6 -17 -11 -33 -11 -56 0 -66 88 -13 112
22 10 28 9 39 -5 7 -9 20 -17 30 -17 16 0 16 2 3 22 -18 27 -54 38 -89 26z"/>
<path d="M3533 12370 c-56 -22 -69 -114 -22 -152 28 -24 81 -23 103 1 23 25 4
37 -26 17 -29 -18 -68 -5 -68 24 0 18 6 20 60 20 l60 0 -6 28 c-12 50 -58 79
-101 62z m55 -32 c24 -24 13 -38 -28 -38 -26 0 -40 5 -40 13 0 18 21 37 40 37
9 0 21 -5 28 -12z"/>
<path d="M3723 12372 c-13 -2 -30 -13 -38 -25 -20 -28 -2 -56 46 -72 19 -7 35
-19 37 -27 4 -23 -28 -31 -55 -13 -31 21 -50 9 -27 -16 36 -39 124 -15 124 34
0 19 -32 42 -72 51 -30 7 -38 33 -12 43 8 3 26 0 40 -7 28 -15 42 -7 25 14
-14 17 -38 23 -68 18z"/>
<path d="M3040 12363 c0 -4 12 -42 28 -85 36 -104 53 -103 93 6 34 94 33 88
12 84 -10 -2 -24 -27 -38 -68 l-22 -65 -22 68 c-14 41 -28 67 -37 67 -8 0 -14
-3 -14 -7z"/>
<path d="M3230 12285 c0 -69 3 -85 15 -85 12 0 15 16 15 85 0 69 -3 85 -15 85
-12 0 -15 -16 -15 -85z"/>
<path d="M1884 12277 c-3 -8 -4 -36 -2 -63 l3 -49 60 0 60 0 0 60 0 60 -58 3
c-42 2 -59 -1 -63 -11z m106 -52 l0 -45 -45 0 -45 0 0 45 0 45 45 0 45 0 0
-45z"/>
<path d="M2034 12277 c-3 -8 -4 -36 -2 -63 l3 -49 60 0 60 0 0 60 0 60 -58 3
c-42 2 -59 -1 -63 -11z m106 -52 l0 -45 -45 0 -45 0 0 45 0 45 45 0 45 0 0
-45z"/>
<path d="M15100 11416 c0 -9 5 -16 10 -16 6 0 10 4 10 9 0 6 -4 13 -10 16 -5
3 -10 -1 -10 -9z"/>
<path d="M15336 11421 c-4 -5 -2 -12 3 -15 5 -4 12 -2 15 3 4 5 2 12 -3 15 -5
4 -12 2 -15 -3z"/>
<path d="M7380 11414 c0 -4 14 -29 30 -56 22 -35 30 -61 30 -93 0 -25 5 -45
10 -45 6 0 10 18 10 40 0 25 9 55 23 78 39 61 48 82 38 82 -6 0 -22 -20 -37
-45 -14 -25 -30 -43 -34 -40 -5 3 -19 23 -31 45 -20 35 -39 52 -39 34z"/>
<path d="M8540 11385 c0 -34 -12 -46 -25 -25 -10 17 -51 11 -69 -9 -38 -42
-12 -131 39 -131 11 0 27 6 33 12 10 10 15 10 22 -2 7 -10 10 19 10 88 0 56
-2 102 -5 102 -3 0 -5 -16 -5 -35z m-9 -66 c3 -13 1 -36 -4 -51 -13 -40 -60
-39 -76 0 -13 31 -2 77 21 84 23 9 52 -8 59 -33z"/>
<path d="M14612 11318 c1 -57 3 -84 5 -60 4 39 6 42 33 42 24 0 33 -7 50 -40
11 -22 25 -40 30 -40 15 0 12 11 -10 48 l-20 33 20 26 c37 48 5 93 -67 93
l-43 0 2 -102z m102 60 c18 -29 -4 -53 -50 -53 -38 0 -39 1 -42 38 l-3 38 42
-3 c27 -2 46 -9 53 -20z"/>
<path d="M15740 11390 c0 -11 -5 -20 -12 -20 -9 0 -9 -3 0 -12 7 -7 12 -35 12
-63 0 -28 5 -56 12 -63 15 -15 38 -16 38 -2 0 6 -7 10 -15 10 -24 0 -21 117 3
123 16 4 16 5 0 6 -11 1 -18 9 -18 21 0 11 -4 20 -10 20 -5 0 -10 -9 -10 -20z"/>
<path d="M16254 11393 c-3 -13 -11 -23 -18 -23 -8 0 -8 -2 0 -8 6 -4 13 -33
16 -65 5 -58 17 -77 48 -76 10 0 8 5 -7 16 -19 12 -23 25 -23 65 0 41 3 50 23
58 17 7 18 9 4 9 -10 1 -22 11 -27 24 l-9 22 -7 -22z"/>
<path d="M7561 11344 c-12 -15 -21 -37 -21 -49 0 -31 37 -75 64 -75 42 0 66
27 66 74 0 74 -67 104 -109 50z m65 8 c47 -31 35 -112 -17 -112 -48 0 -66 63
-29 100 22 22 29 24 46 12z"/>
<path d="M7721 11308 c-1 -57 2 -69 18 -78 27 -14 37 -13 55 6 15 14 16 14 16
0 0 -9 5 -16 10 -16 6 0 10 32 10 75 0 43 -4 75 -10 75 -5 0 -10 -24 -10 -53
0 -55 -12 -77 -41 -77 -24 0 -31 13 -39 79 l-7 56 -2 -67z"/>
<path d="M7972 11358 c-28 -28 -10 -60 41 -72 20 -5 27 -12 25 -24 -4 -21 -44
-28 -64 -11 -8 6 -18 9 -22 5 -9 -10 27 -36 51 -36 29 0 57 19 57 39 0 23 -16
37 -52 46 -34 9 -43 32 -18 45 14 8 26 7 41 -1 17 -9 20 -8 17 3 -6 17 -60 22
-76 6z"/>
<path d="M8116 11348 c-36 -50 -7 -128 47 -128 27 0 65 25 54 36 -4 4 -13 2
-19 -4 -25 -25 -78 -8 -78 25 0 9 16 13 54 13 l55 0 -10 32 c-5 17 -14 35 -21
40 -25 15 -67 8 -82 -14z m85 -19 c9 -17 6 -19 -36 -19 -45 0 -52 5 -37 26 18
27 56 24 73 -7z"/>
<path d="M8272 11295 c0 -44 3 -66 5 -50 9 76 15 95 34 106 34 18 49 -5 49
-72 0 -33 4 -59 10 -59 14 0 13 123 -2 138 -16 16 -51 15 -66 0 -10 -10 -15
-10 -22 2 -7 10 -9 -11 -8 -65z"/>
<path d="M14791 11344 c-12 -15 -21 -37 -21 -49 0 -34 37 -75 69 -75 27 0 51
16 51 34 0 6 -5 5 -12 -2 -19 -19 -66 -15 -78 7 -15 30 -14 31 45 31 46 0 55
3 55 18 0 59 -72 83 -109 36z m81 -8 c15 -21 8 -26 -37 -26 -49 0 -57 11 -24
34 22 15 48 11 61 -8z"/>
<path d="M14956 11351 c-10 -11 -18 -36 -18 -56 0 -44 26 -75 62 -75 26 0 50
16 50 34 0 6 -5 5 -12 -2 -7 -7 -24 -12 -39 -12 -20 0 -30 7 -38 28 -24 57 22
107 68 75 23 -15 29 -5 9 15 -18 18 -63 14 -82 -7z"/>
<path d="M15100 11295 c0 -43 4 -75 10 -75 6 0 10 32 10 75 0 43 -4 75 -10 75
-6 0 -10 -32 -10 -75z"/>
<path d="M15172 11270 c1 -58 3 -88 5 -67 4 36 15 47 28 27 10 -16 51 -12 67
8 54 62 0 163 -65 123 -16 -10 -21 -10 -28 1 -5 7 -8 -31 -7 -92z m103 47 c4
-13 1 -35 -4 -50 -8 -21 -17 -27 -40 -27 -23 0 -31 6 -39 28 -11 33 3 79 26
85 25 5 51 -11 57 -36z"/>
<path d="M15343 11295 c0 -44 2 -61 4 -37 2 23 2 59 0 80 -2 20 -4 1 -4 -43z"/>
<path d="M15416 11351 c-26 -29 -24 -91 4 -113 28 -22 63 -23 85 -2 19 20 12
32 -9 15 -24 -20 -70 -10 -74 17 -3 20 0 22 47 22 47 0 51 2 51 23 0 51 -70
76 -104 38z m84 -26 c0 -11 -12 -15 -45 -15 -36 0 -43 3 -38 16 13 35 83 34
83 -1z"/>
<path d="M15572 11295 c0 -44 3 -66 5 -50 9 76 15 95 34 106 34 18 49 -5 49
-72 0 -33 4 -59 10 -59 14 0 13 123 -2 138 -16 16 -51 15 -66 0 -10 -10 -15
-10 -22 2 -7 10 -9 -11 -8 -65z"/>
<path d="M15921 11344 c-25 -32 -27 -61 -5 -92 17 -25 62 -30 83 -9 10 10 12
5 9 -23 -3 -30 -7 -35 -31 -38 -16 -2 -34 2 -42 8 -9 8 -15 8 -20 0 -9 -14 43
-32 69 -24 42 13 46 23 46 115 0 53 -4 89 -10 89 -12 0 -13 -11 -10 -67 1 -37
-2 -44 -24 -54 -22 -10 -29 -9 -46 6 -40 36 -9 111 41 98 15 -4 20 -3 15 5
-13 21 -54 13 -75 -14z"/>
<path d="M16096 11351 c-26 -29 -24 -91 4 -113 28 -22 63 -23 85 -2 19 20 12
32 -9 15 -24 -20 -70 -10 -74 17 -3 20 0 22 47 22 47 0 51 2 51 23 0 51 -70
76 -104 38z m84 -26 c0 -11 -12 -15 -45 -15 -36 0 -43 3 -38 16 13 35 83 34
83 -1z"/>
<path d="M16352 11358 c-25 -25 -13 -48 34 -68 26 -12 44 -25 42 -33 -6 -17
-59 -22 -69 -6 -4 8 -11 10 -15 6 -13 -12 18 -37 47 -37 34 0 63 35 49 60 -5
10 -23 20 -40 23 -17 4 -33 14 -37 23 -7 19 16 36 37 28 8 -3 22 -9 30 -12 13
-5 13 -3 1 11 -16 20 -62 22 -79 5z"/>
<path d="M3380 11326 c0 -8 4 -17 8 -20 13 -8 35 11 28 23 -10 16 -36 14 -36
-3z"/>
<path d="M3580 11326 c0 -8 4 -17 8 -20 13 -8 35 11 28 23 -10 16 -36 14 -36
-3z"/>
<path d="M2512 11318 c3 -7 21 -14 41 -16 l37 -3 0 -100 c0 -81 3 -99 15 -99
12 0 15 18 15 100 l0 100 35 0 c24 0 35 5 35 15 0 12 -17 15 -91 15 -68 0 -90
-3 -87 -12z"/>
<path d="M3477 11314 c-4 -4 -7 -15 -7 -25 0 -9 -6 -20 -12 -22 -10 -4 -10 -8
-2 -14 6 -4 13 -36 16 -71 4 -64 15 -82 51 -82 9 0 17 7 17 15 0 8 -7 15 -15
15 -12 0 -15 13 -15 60 0 47 3 60 15 60 8 0 15 5 15 10 0 6 -6 10 -14 10 -8 0
-16 10 -18 22 -3 22 -19 33 -31 22z"/>
<path d="M2056 11275 c5 -12 -6 -15 -64 -15 -62 0 -73 -3 -86 -22 -18 -26 -21
-48 -6 -48 6 0 10 9 10 20 0 26 36 40 102 40 40 0 49 -3 44 -15 -8 -21 7 -19
28 3 15 18 15 20 -2 35 -23 21 -33 22 -26 2z"/>
<path d="M2762 11264 c-12 -8 -22 -10 -22 -5 0 6 -7 11 -15 11 -12 0 -15 -16
-15 -85 0 -78 2 -85 20 -85 18 0 20 7 20 66 0 64 1 66 30 77 17 6 29 16 27 21
-6 17 -21 17 -45 0z"/>
<path d="M2883 11272 c-24 -4 -50 -29 -40 -39 4 -3 20 0 37 7 27 11 34 11 48
-4 15 -15 15 -18 2 -26 -8 -5 -24 -10 -35 -10 -31 0 -65 -28 -65 -54 0 -31 18
-46 55 -46 17 0 36 5 43 12 9 9 12 9 12 0 0 -7 7 -12 15 -12 12 0 15 14 15 68
0 89 -21 115 -87 104z m57 -107 c0 -20 -43 -47 -64 -39 -36 14 -6 53 42 54 13
0 22 -6 22 -15z"/>
<path d="M3076 11265 c-14 -8 -26 -10 -26 -4 0 5 -7 9 -15 9 -12 0 -15 -16
-15 -85 0 -69 3 -85 15 -85 12 0 15 13 15 59 0 41 5 65 16 75 38 39 64 10 64
-71 0 -49 3 -63 15 -63 12 0 15 15 15 74 0 47 -5 77 -12 83 -25 19 -46 21 -72
8z"/>
<path d="M3255 11272 c-30 -6 -45 -22 -45 -47 0 -28 15 -41 57 -50 40 -8 52
-24 29 -40 -18 -13 -56 -9 -56 6 0 5 -7 9 -15 9 -22 0 -19 -27 4 -40 49 -26
111 -2 111 42 0 20 -8 28 -32 38 -51 18 -63 26 -63 41 0 17 43 25 58 10 19
-19 39 -14 28 8 -11 20 -43 29 -76 23z"/>
<path d="M3703 11270 c-36 -15 -56 -55 -50 -98 8 -45 38 -72 82 -72 85 0 104
141 22 170 -16 5 -30 10 -31 9 -1 0 -11 -4 -23 -9z m61 -42 c21 -30 20 -64 -3
-87 -26 -26 -57 -17 -70 20 -23 67 36 120 73 67z"/>
<path d="M3920 11272 c-8 -3 -19 -10 -23 -16 -6 -8 -10 -7 -14 2 -2 6 -11 12
-19 12 -11 0 -14 -18 -14 -85 0 -78 2 -85 20 -85 18 0 20 7 20 64 0 69 14 92
48 81 23 -7 32 -33 32 -97 0 -36 4 -48 15 -48 19 0 21 103 2 139 -13 26 -43
41 -67 33z"/>
<path d="M4078 11268 c-55 -20 -47 -70 15 -91 23 -7 43 -21 45 -29 4 -21 -33
-29 -55 -12 -24 18 -43 18 -43 -1 0 -36 87 -48 120 -15 33 33 21 56 -40 79
-44 17 -52 30 -26 46 10 6 23 5 40 -5 30 -15 47 -6 25 14 -21 20 -50 26 -81
14z"/>
<path d="M3380 11185 c0 -69 3 -85 15 -85 12 0 15 16 15 85 0 69 -3 85 -15 85
-12 0 -15 -16 -15 -85z"/>
<path d="M3580 11185 c0 -69 3 -85 15 -85 12 0 15 16 15 85 0 69 -3 85 -15 85
-12 0 -15 -16 -15 -85z"/>
<path d="M2130 11190 c0 -26 -36 -40 -102 -40 -40 0 -49 3 -44 15 8 21 -7 19
-28 -3 -15 -18 -15 -20 2 -35 23 -21 33 -22 26 -2 -5 12 6 15 64 15 62 0 73 3
86 22 18 26 21 48 6 48 -5 0 -10 -9 -10 -20z"/>
<path d="M20916 11137 c-45 -45 -45 -163 -1 -211 17 -19 34 -26 60 -26 49 0
74 15 91 55 28 67 10 171 -34 194 -36 19 -91 13 -116 -12z m94 -27 c15 -15 20
-33 20 -76 0 -71 -12 -94 -50 -94 -40 0 -53 28 -48 103 3 43 10 63 23 73 25
18 31 18 55 -6z"/>
<path d="M23665 11150 c-4 -7 16 -36 51 -71 l58 -58 -125 -3 c-102 -3 -124 -6
-124 -18 0 -12 22 -15 124 -18 l125 -3 -59 -59 c-46 -47 -57 -62 -47 -72 9 -9
29 5 91 63 43 41 79 79 80 85 1 11 -141 155 -159 162 -4 2 -11 -2 -15 -8z"/>
<path d="M26031 11136 c-71 -75 -32 -236 56 -236 69 0 103 43 103 130 0 56
-20 104 -49 120 -35 18 -86 12 -110 -14z m112 -68 c11 -46 -7 -114 -33 -128
-16 -9 -25 -6 -45 14 -36 36 -36 116 0 152 24 24 28 25 48 11 12 -8 26 -30 30
-49z"/>
<path d="M26387 11149 c-61 -36 -60 -205 1 -238 33 -18 90 -13 111 8 48 48 52
166 6 215 -26 28 -83 35 -118 15z m78 -33 c13 -10 20 -30 23 -74 4 -55 2 -63
-22 -87 -21 -21 -29 -24 -46 -15 -39 21 -46 134 -10 170 24 24 30 24 55 6z"/>
<path d="M26627 11149 c-61 -36 -60 -205 1 -238 33 -18 90 -13 111 8 48 48 52
166 6 215 -26 28 -83 35 -118 15z m78 -33 c13 -10 20 -30 23 -74 4 -55 2 -63
-22 -87 -21 -21 -29 -24 -46 -15 -39 21 -46 134 -10 170 24 24 30 24 55 6z"/>
<path d="M26244 10935 c-4 -9 -2 -21 4 -27 15 -15 44 -1 40 19 -4 23 -36 29
-44 8z"/>
<path d="M7494 10726 c-65 -29 -96 -99 -95 -217 0 -146 84 -234 196 -209 89
20 128 86 129 216 0 135 -53 213 -151 221 -28 2 -61 -3 -79 -11z m109 -66 c71
-56 58 -277 -17 -296 -14 -3 -36 -4 -49 0 -74 18 -90 224 -22 292 29 29 54 30
88 4z"/>
<path d="M8070 10722 c-92 -46 -126 -210 -70 -339 20 -46 52 -71 105 -83 112
-25 196 63 196 209 1 120 -31 189 -97 217 -45 19 -92 18 -134 -4z m115 -66
c57 -57 59 -213 4 -272 -24 -25 -58 -31 -88 -14 -45 24 -67 172 -37 244 15 37
50 66 79 66 10 0 29 -11 42 -24z"/>
<path d="M8474 10726 c-65 -29 -96 -99 -95 -217 0 -146 84 -234 196 -209 89
20 128 86 129 216 0 135 -53 213 -151 221 -28 2 -61 -3 -79 -11z m109 -66 c71
-56 58 -277 -17 -296 -14 -3 -36 -4 -49 0 -74 18 -90 224 -22 292 29 29 54 30
88 4z"/>
<path d="M14710 10722 c-92 -46 -126 -210 -70 -339 20 -46 52 -71 105 -83 112
-25 196 63 196 209 1 120 -31 189 -97 217 -45 19 -92 18 -134 -4z m115 -66
c57 -57 59 -213 4 -272 -24 -25 -58 -31 -88 -14 -45 24 -67 172 -37 244 15 37
50 66 79 66 10 0 29 -11 42 -24z"/>
<path d="M15284 10721 c-45 -27 -70 -64 -84 -122 -25 -103 6 -236 64 -274 97
-64 216 -17 246 97 18 63 8 184 -18 235 -39 75 -140 106 -208 64z m106 -56
c44 -23 67 -116 50 -205 -12 -61 -42 -100 -77 -100 -63 0 -93 51 -93 159 0 78
20 133 54 149 29 14 33 14 66 -3z"/>
<path d="M15690 10722 c-92 -46 -126 -210 -70 -339 20 -46 52 -71 105 -83 112
-25 196 63 196 209 1 120 -31 189 -97 217 -45 19 -92 18 -134 -4z m115 -66
c57 -57 59 -213 4 -272 -24 -25 -58 -31 -88 -14 -45 24 -67 172 -37 244 15 37
50 66 79 66 10 0 29 -11 42 -24z"/>
<path d="M10380 10425 l0 -115 63 0 c79 0 107 17 107 65 0 25 -6 37 -21 45
-19 11 -19 12 -4 24 23 17 22 66 -1 83 -10 7 -44 13 -81 13 l-63 0 0 -115z
m119 71 c16 -19 3 -45 -25 -52 -37 -9 -54 2 -54 36 0 27 3 30 34 30 18 0 39
-6 45 -14z m9 -118 c3 -24 -1 -28 -32 -33 -44 -9 -56 -1 -56 36 0 29 1 30 43
27 37 -3 42 -6 45 -30z"/>
<path d="M10590 10425 c0 -108 1 -115 20 -115 17 0 20 7 20 40 0 68 50 61 80
-11 9 -21 19 -29 37 -29 l24 0 -26 44 -26 45 20 20 c27 27 27 75 1 101 -16 16
-33 20 -85 20 l-65 0 0 -115z m124 63 c17 -27 -5 -52 -48 -56 l-36 -3 0 41 0
41 36 -3 c22 -2 42 -10 48 -20z"/>
<path d="M10800 10425 l0 -115 70 0 c54 0 70 3 70 14 0 11 -14 16 -47 18 l-48
3 -3 98 c-2 89 -4 97 -22 97 -19 0 -20 -7 -20 -115z"/>
<path d="M17600 10425 l0 -115 75 0 c59 0 75 3 75 14 0 11 -15 16 -52 18 -52
3 -53 4 -56 36 l-3 32 50 0 c39 0 51 4 51 15 0 11 -12 15 -50 15 l-50 0 0 35
0 35 55 0 c42 0 55 3 55 15 0 12 -15 15 -75 15 l-75 0 0 -115z"/>
<path d="M17800 10450 c0 -83 2 -93 25 -115 18 -19 35 -25 65 -25 30 0 47 6
65 25 23 22 25 32 25 115 0 83 -1 90 -20 90 -18 0 -20 -7 -20 -85 0 -79 -2
-86 -25 -101 -23 -15 -27 -15 -50 0 -23 15 -25 22 -25 101 0 78 -2 85 -20 85
-19 0 -20 -7 -20 -90z"/>
<path d="M18030 10425 c0 -107 1 -115 19 -115 16 0 20 8 23 43 2 34 7 42 23
42 13 0 28 -15 43 -42 15 -28 30 -43 43 -43 24 0 24 2 -2 51 -18 37 -19 42 -5
52 9 7 19 26 22 44 5 26 1 37 -19 57 -22 22 -35 26 -87 26 l-60 0 0 -115z
m114 69 c32 -32 11 -64 -41 -64 -32 0 -33 1 -33 40 0 38 2 40 29 40 16 0 37
-7 45 -16z"/>
<path d="M20890 10340 l0 -100 43 0 c23 0 53 7 65 16 25 18 29 56 7 74 -11 9
-13 16 -5 24 5 5 10 22 10 38 0 33 -24 48 -79 48 l-41 0 0 -100z m100 76 c0
-2 3 -11 6 -19 8 -21 -23 -47 -57 -47 -27 0 -29 3 -29 35 0 34 1 35 40 35 22
0 40 -2 40 -4z m7 -102 c21 -29 -1 -54 -47 -54 l-40 0 0 41 0 42 37 -6 c21 -4
43 -14 50 -23z"/>
<path d="M21070 10340 c0 -60 4 -100 10 -100 6 0 10 18 10 40 0 37 2 40 28 40
24 0 32 -7 47 -40 10 -22 24 -40 32 -40 11 0 9 9 -8 40 -21 37 -21 41 -6 58 9
10 17 30 17 44 0 38 -29 58 -83 58 l-47 0 0 -100z m108 52 c5 -33 -15 -52 -54
-52 -33 0 -34 1 -34 41 l0 40 43 -3 c35 -3 43 -7 45 -26z"/>
<path d="M21250 10340 l0 -100 55 0 c30 0 55 5 55 10 0 6 -20 10 -45 10 l-45
0 0 90 c0 53 -4 90 -10 90 -6 0 -10 -40 -10 -100z"/>
<path d="M26000 10340 l0 -100 60 0 c33 0 60 4 60 10 0 6 -22 10 -50 10 l-50
0 0 35 c0 35 0 35 45 35 25 0 45 5 45 10 0 6 -20 10 -45 10 -45 0 -45 0 -45
35 l0 35 50 0 c28 0 50 5 50 10 0 6 -27 10 -60 10 l-60 0 0 -100z"/>
<path d="M26172 10358 c-2 -79 0 -88 20 -102 33 -23 75 -20 103 9 22 21 25 33
25 100 0 43 -4 75 -10 75 -6 0 -10 -29 -10 -68 0 -80 -17 -112 -59 -112 -41 0
-54 23 -62 109 l-6 76 -1 -87z"/>
<path d="M26382 10338 c1 -57 3 -84 5 -60 4 39 6 42 33 42 24 0 33 -7 50 -40
11 -22 25 -40 30 -40 15 0 12 11 -10 48 l-20 33 20 26 c37 48 5 93 -67 93
l-43 0 2 -102z m102 60 c18 -29 -4 -53 -50 -53 -38 0 -39 1 -42 38 l-3 38 42
-3 c27 -2 46 -9 53 -20z"/>
<path d="M7828 10379 c-11 -6 -18 -22 -18 -39 0 -23 5 -31 25 -36 33 -8 51 0
58 26 3 14 -1 28 -14 41 -22 22 -27 22 -51 8z"/>
<path d="M15052 10383 c-41 -16 -32 -83 11 -83 46 0 66 59 28 80 -11 5 -21 10
-23 9 -2 0 -9 -3 -16 -6z"/>
<path d="M2567 9119 c-25 -15 -47 -63 -47 -104 0 -70 43 -115 109 -115 32 0
81 34 81 56 0 20 -17 17 -40 -6 -48 -48 -115 -10 -115 65 0 55 25 85 71 85 22
0 38 -7 48 -21 8 -11 22 -19 32 -17 15 3 13 7 -10 36 -23 27 -35 32 -69 32
-23 0 -50 -5 -60 -11z"/>
<path d="M3180 9091 c0 -40 0 -40 -26 -26 -77 40 -140 -78 -77 -147 19 -21 63
-24 82 -5 11 10 14 10 18 0 3 -7 11 -13 19 -13 11 0 14 22 14 115 0 96 -3 115
-15 115 -11 0 -15 -11 -15 -39z m-30 -51 c44 -24 29 -110 -21 -110 -21 0 -29
7 -38 30 -14 43 1 80 37 89 2 1 12 -3 22 -9z"/>
<path d="M1896 9094 c-12 -11 -16 -36 -16 -94 0 -108 3 -110 140 -110 137 0
140 2 140 110 0 108 -3 110 -140 110 -85 0 -112 -3 -124 -16z m242 -21 c3 -10
-25 -13 -117 -13 -111 0 -133 5 -114 24 13 12 226 2 231 -11z m0 -105 l-3 -53
-115 0 -115 0 -3 53 -3 52 121 0 121 0 -3 -52z"/>
<path d="M1928 8978 c-8 -22 3 -38 27 -38 23 0 40 24 29 41 -8 13 -51 11 -56
-3z"/>
<path d="M2793 9065 c-38 -16 -46 -42 -10 -30 46 15 72 11 72 -10 0 -15 -9
-21 -37 -26 -64 -10 -87 -48 -52 -83 18 -19 65 -21 82 -4 9 9 12 9 12 0 0 -7
7 -12 15 -12 12 0 15 15 15 74 0 47 -5 77 -12 84 -24 18 -53 21 -85 7z m67
-105 c0 -27 -34 -44 -60 -30 -25 13 -25 26 -2 39 30 18 62 13 62 -9z"/>
<path d="M2992 9064 c-12 -8 -22 -10 -22 -5 0 6 -7 11 -15 11 -12 0 -15 -16
-15 -85 0 -69 3 -85 15 -85 12 0 15 13 15 55 0 42 5 60 20 75 11 11 25 20 30
20 6 0 10 7 10 15 0 19 -10 19 -38 -1z"/>
<path d="M6908 8834 c-38 -20 -61 -69 -61 -129 0 -93 48 -145 134 -145 33 0
47 6 75 34 19 19 34 39 34 45 0 20 -32 12 -56 -14 -33 -36 -95 -35 -123 1 -30
38 -29 124 2 158 34 39 105 36 127 -4 10 -18 50 -29 50 -14 0 17 -36 64 -57
73 -33 15 -93 13 -125 -5z"/>
<path d="M7140 8705 l0 -145 25 0 25 0 0 145 0 145 -25 0 -25 0 0 -145z"/>
<path d="M8860 8705 c0 -138 1 -145 20 -145 19 0 20 7 20 145 0 138 -1 145
-20 145 -19 0 -20 -7 -20 -145z"/>
<path d="M7275 8758 c-34 -30 -46 -84 -30 -132 17 -48 40 -65 91 -66 72 0 114
67 92 147 -19 68 -101 95 -153 51z m95 -28 c14 -14 20 -33 20 -62 0 -48 -22
-78 -56 -78 -63 0 -75 131 -14 153 25 9 29 8 50 -13z"/>
<path d="M7515 8758 c-34 -30 -46 -84 -30 -132 17 -48 40 -65 91 -66 72 0 114
67 92 147 -19 68 -101 95 -153 51z m95 -28 c14 -14 20 -33 20 -62 0 -48 -22
-78 -56 -78 -63 0 -75 131 -14 153 25 9 29 8 50 -13z"/>
<path d="M7743 8756 c-24 -21 -26 -27 -18 -52 8 -22 21 -33 58 -45 61 -20 74
-33 57 -54 -16 -19 -54 -19 -74 0 -19 19 -46 19 -46 1 0 -44 113 -63 150 -26
42 42 17 89 -55 106 -57 13 -71 37 -30 56 19 9 29 8 49 -6 14 -9 30 -16 36
-16 18 0 11 28 -12 44 -33 24 -82 20 -115 -8z"/>
<path d="M7979 8765 c-57 -31 -65 -139 -14 -182 35 -30 102 -31 133 -3 12 12
22 25 22 30 0 16 -36 12 -50 -5 -26 -31 -81 -12 -95 33 -6 22 -5 22 75 22 l80
0 -6 28 c-18 82 -77 114 -145 77z m79 -31 c40 -28 28 -44 -33 -44 -52 0 -55 1
-45 20 9 17 37 39 50 40 3 0 16 -7 28 -16z"/>
<path d="M8306 8759 c-46 -36 -21 -56 29 -23 27 17 60 12 69 -12 9 -24 1 -31
-46 -38 -60 -10 -88 -30 -88 -65 0 -36 28 -61 70 -61 18 0 42 7 52 17 17 15
18 15 18 0 0 -10 8 -17 20 -17 18 0 20 7 20 85 0 78 -2 88 -25 110 -30 31 -82
33 -119 4z m104 -112 c0 -7 -7 -23 -16 -35 -22 -32 -77 -28 -82 6 -2 16 3 25
20 31 34 14 78 13 78 -2z"/>
<path d="M8617 8773 c-4 -3 -7 -71 -7 -150 l0 -143 25 0 c24 0 25 3 25 56 0
50 1 54 16 40 27 -28 79 -20 109 16 24 28 27 38 23 87 -4 44 -10 59 -32 78
-31 26 -64 29 -92 8 -25 -19 -34 -19 -34 0 0 15 -21 21 -33 8z m143 -63 c16
-30 12 -74 -10 -98 -53 -56 -113 11 -86 96 15 45 72 46 96 2z"/>
<path d="M8986 8759 c-46 -36 -21 -56 29 -23 27 17 60 12 69 -12 9 -24 1 -31
-46 -38 -60 -10 -88 -30 -88 -65 0 -36 28 -61 70 -61 18 0 42 7 52 17 17 15
18 15 18 0 0 -10 8 -17 20 -17 18 0 20 7 20 85 0 78 -2 88 -25 110 -30 31 -82
33 -119 4z m104 -112 c0 -7 -7 -23 -16 -35 -22 -32 -77 -28 -82 6 -2 16 3 25
20 31 34 14 78 13 78 -2z"/>
<path d="M9190 8670 c0 -103 1 -110 20 -110 18 0 20 7 20 78 0 86 8 102 52
102 36 0 48 -28 48 -116 0 -57 2 -64 20 -64 18 0 20 7 20 78 0 88 -14 123 -54
137 -21 7 -34 6 -56 -7 -24 -14 -29 -14 -34 -2 -3 8 -12 14 -21 14 -13 0 -15
-18 -15 -110z"/>
<path d="M9434 8755 c-4 -9 -2 -21 4 -27 15 -15 44 -1 40 19 -4 23 -36 29 -44
8z"/>
<path d="M9434 8595 c-4 -9 -2 -21 4 -27 15 -15 44 -1 40 19 -4 23 -36 29 -44
8z"/>
<path d="M21003 8440 c-4 -14 -14 -20 -34 -20 -16 0 -38 -9 -49 -20 -18 -18
-20 -33 -20 -180 0 -212 -12 -200 200 -200 212 0 200 -12 200 200 0 147 -2
162 -20 180 -11 11 -33 20 -49 20 -20 0 -30 6 -34 20 -3 11 -10 20 -17 20 -7
0 -14 -9 -17 -20 -5 -17 -14 -20 -63 -20 -49 0 -58 3 -63 20 -3 11 -10 20 -17
20 -7 0 -14 -9 -17 -20z m0 -80 c3 -11 10 -20 17 -20 7 0 14 9 17 20 5 17 14
20 63 20 49 0 58 -3 63 -20 7 -26 27 -26 34 1 4 15 12 19 32 17 22 -3 26 -8
29 -40 l3 -38 -160 0 -161 0 0 33 c0 40 6 47 36 47 13 0 24 -8 27 -20z m255
-197 l-3 -98 -155 0 -155 0 -3 98 -3 97 161 0 161 0 -3 -97z"/>
<path d="M21670 8225 l0 -128 66 6 c85 6 115 32 121 104 9 93 -23 129 -125
139 l-62 7 0 -128z m138 72 c30 -32 37 -76 19 -120 -12 -28 -24 -38 -54 -46
-74 -21 -73 -23 -73 89 l0 100 43 0 c32 0 49 -6 65 -23z"/>
<path d="M22110 8226 c0 -106 2 -126 15 -126 13 0 15 18 13 122 -2 86 -7 123
-15 126 -10 3 -13 -26 -13 -122z"/>
<path d="M22190 8335 c0 -8 7 -15 15 -15 8 0 15 7 15 15 0 8 -7 15 -15 15 -8
0 -15 -7 -15 -15z"/>
<path d="M21953 8275 c-78 -33 -52 -175 32 -175 38 0 81 28 66 43 -6 6 -15 4
-26 -7 -22 -22 -51 -20 -76 5 -32 32 -19 44 49 47 55 3 62 5 62 23 0 54 -54
86 -107 64z m75 -42 c14 -23 14 -23 -42 -23 -61 0 -65 4 -39 32 22 24 61 20
81 -9z"/>
<path d="M22499 8278 c-52 -17 -67 -111 -24 -153 30 -31 84 -34 109 -6 10 11
13 22 8 25 -5 3 -15 -1 -22 -9 -25 -31 -85 -11 -92 30 -3 18 3 20 65 23 l67 3
-6 27 c-13 54 -54 77 -105 60z m71 -39 c15 -28 11 -31 -49 -27 -51 3 -51 3
-36 26 21 29 70 30 85 1z"/>
<path d="M22702 8274 c-12 -8 -22 -10 -22 -5 0 6 -7 11 -15 11 -12 0 -15 -17
-15 -90 0 -73 3 -90 15 -90 12 0 15 14 15 68 0 70 10 92 42 92 10 0 18 7 18
15 0 19 -10 19 -38 -1z"/>
<path d="M22190 8190 c0 -73 3 -90 15 -90 12 0 15 17 15 90 0 73 -3 90 -15 90
-12 0 -15 -17 -15 -90z"/>
<path d="M22263 8268 c2 -7 17 -48 33 -91 19 -50 34 -77 42 -75 8 2 27 39 43
82 32 89 34 99 17 94 -6 -2 -21 -32 -32 -65 -12 -34 -24 -65 -28 -68 -3 -4
-17 25 -29 64 -14 44 -28 71 -37 71 -8 0 -12 -6 -9 -12z"/>
<path d="M22806 8190 c27 -71 32 -95 24 -110 -6 -11 -17 -20 -25 -20 -8 0 -15
-7 -15 -15 0 -8 4 -15 9 -15 26 0 62 53 89 130 17 47 33 93 37 103 5 11 2 17
-7 17 -8 0 -23 -29 -37 -70 -13 -39 -27 -68 -30 -64 -3 3 -15 33 -27 67 -12
37 -27 63 -36 65 -13 3 -9 -15 18 -88z"/>
<path d="M25734 8249 c-8 -14 11 -33 25 -25 6 4 11 14 11 22 0 16 -26 19 -36
3z"/>
<path d="M25010 8135 c0 -108 1 -115 20 -115 19 0 20 7 20 115 0 108 -1 115
-20 115 -19 0 -20 -7 -20 -115z"/>
<path d="M25650 8135 c0 -108 1 -115 20 -115 19 0 20 7 20 115 0 108 -1 115
-20 115 -19 0 -20 -7 -20 -115z"/>
<path d="M25930 8211 c0 -39 0 -40 -26 -27 -51 27 -94 -9 -94 -79 0 -28 7 -48
20 -63 23 -24 69 -29 88 -10 9 9 12 9 12 0 0 -7 9 -12 20 -12 19 0 20 7 20
115 0 108 -1 115 -20 115 -17 0 -20 -7 -20 -39z m-11 -65 c17 -20 10 -77 -11
-90 -26 -16 -52 4 -56 43 -4 36 12 61 38 61 10 0 23 -6 29 -14z"/>
<path d="M26100 8134 l0 -116 65 4 c55 3 70 8 93 31 23 23 27 36 27 83 0 50
-3 58 -33 85 -28 25 -40 29 -92 29 l-60 0 0 -116z m127 60 c21 -21 25 -32 20
-65 -7 -54 -22 -69 -68 -69 l-39 0 0 80 0 80 30 0 c20 0 40 -9 57 -26z"/>
<path d="M26527 8233 c-4 -3 -7 -15 -7 -25 0 -10 -4 -18 -10 -18 -5 0 -10 -7
-10 -15 0 -8 5 -15 10 -15 6 0 10 -21 10 -48 0 -57 21 -92 56 -92 29 0 33 25
4 33 -17 4 -20 14 -20 56 0 44 3 51 20 51 11 0 20 6 20 14 0 7 -9 16 -20 19
-12 3 -20 14 -20 26 0 20 -19 28 -33 14z"/>
<path d="M25159 8182 c-16 -11 -24 -12 -27 -4 -2 7 -10 12 -18 12 -11 0 -14
-18 -14 -85 0 -78 2 -85 20 -85 17 0 19 8 22 68 3 62 5 67 27 70 32 5 41 -12
41 -80 0 -51 2 -58 20 -58 18 0 20 7 20 63 0 92 -40 135 -91 99z"/>
<path d="M25513 8192 c-12 -2 -27 -10 -34 -18 -19 -23 8 -36 35 -19 13 9 27
11 35 6 21 -14 5 -41 -24 -41 -42 0 -65 -18 -65 -48 0 -16 5 -33 12 -40 15
-15 53 -16 79 -2 13 7 19 7 19 0 0 -5 9 -10 20 -10 18 0 20 7 20 58 0 90 -30
125 -97 114z m57 -98 c0 -20 -24 -44 -45 -44 -30 0 -36 36 -7 43 26 7 52 8 52
1z"/>
<path d="M26368 8189 c-14 -6 -29 -17 -32 -25 -5 -13 1 -14 38 -9 30 5 46 3
51 -5 9 -15 -12 -30 -41 -30 -12 0 -32 -9 -45 -19 -23 -19 -23 -21 -9 -48 17
-31 61 -43 86 -22 10 8 14 8 14 0 0 -6 9 -11 20 -11 18 0 20 7 20 69 0 67 -14
101 -40 101 -5 0 -14 2 -22 4 -7 3 -25 0 -40 -5z m60 -111 c-3 -26 -43 -37
-62 -18 -8 8 -6 15 8 26 31 22 58 18 54 -8z"/>
<path d="M26682 8192 c-53 -8 -74 -110 -32 -152 26 -26 90 -27 113 -2 10 10
17 22 17 25 0 11 -35 8 -47 -4 -18 -18 -58 -7 -61 19 -3 21 0 22 57 22 l60 0
-9 31 c-16 53 -41 69 -98 61z m56 -54 c3 -15 -4 -18 -32 -18 -34 0 -47 15 -29
34 13 13 58 1 61 -16z"/>
<path d="M25289 8143 c10 -27 24 -65 30 -85 10 -29 18 -38 36 -38 19 0 27 12
52 85 30 85 30 85 8 85 -18 0 -25 -10 -40 -62 l-17 -63 -14 30 c-7 17 -16 45
-20 63 -5 25 -11 32 -30 32 l-24 0 19 -47z"/>
<path d="M25730 8105 c0 -78 2 -85 20 -85 18 0 20 7 20 85 0 78 -2 85 -20 85
-18 0 -20 -7 -20 -85z"/>
<path d="M1967 8039 c-76 -12 -78 -16 -75 -143 3 -111 3 -111 31 -124 37 -18
157 -18 194 0 l28 13 0 115 c0 113 0 115 -25 126 -36 16 -97 22 -153 13z m145
-37 c18 -18 3 -25 -62 -30 -103 -7 -164 14 -107 38 30 13 154 7 169 -8z m-92
-57 c30 0 68 4 83 8 27 7 28 7 25 -25 -3 -29 -8 -35 -43 -46 -43 -15 -120 -10
-155 8 -13 7 -20 21 -20 41 0 27 2 29 28 22 15 -5 52 -8 82 -8z m0 -95 c32 0
70 4 84 10 25 9 26 8 26 -24 0 -29 -5 -36 -31 -45 -18 -6 -53 -11 -79 -11 -26
0 -61 5 -79 11 -26 9 -31 16 -31 45 0 32 1 33 26 24 14 -6 52 -10 84 -10z"/>
<path d="M2760 8026 c0 -8 4 -17 8 -20 13 -8 35 11 28 23 -10 16 -36 14 -36
-3z"/>
<path d="M2530 7915 c0 -96 3 -115 15 -115 11 0 15 12 15 50 l0 50 60 0 60 0
0 -50 c0 -38 4 -50 15 -50 12 0 15 19 15 115 0 96 -3 115 -15 115 -11 0 -15
-12 -15 -50 l0 -50 -60 0 -60 0 0 50 c0 38 -4 50 -15 50 -12 0 -15 -19 -15
-115z"/>
<path d="M3027 8014 c-4 -4 -7 -15 -7 -25 0 -9 -6 -20 -12 -22 -10 -4 -10 -8
-2 -14 6 -4 13 -36 16 -71 4 -64 15 -82 51 -82 9 0 17 7 17 15 0 8 -7 15 -15
15 -12 0 -15 13 -15 60 0 47 3 60 15 60 8 0 15 5 15 10 0 6 -6 10 -14 10 -8 0
-16 10 -18 22 -3 22 -19 33 -31 22z"/>
<path d="M2885 7972 c-30 -6 -45 -22 -45 -47 0 -28 15 -41 57 -50 40 -8 52
-24 29 -40 -18 -13 -56 -9 -56 6 0 5 -7 9 -15 9 -22 0 -19 -27 4 -40 49 -26
111 -2 111 42 0 20 -8 28 -32 38 -51 18 -63 26 -63 41 0 17 43 25 58 10 19
-19 39 -14 28 8 -11 20 -43 29 -76 23z"/>
<path d="M3173 7970 c-36 -15 -56 -55 -50 -98 8 -45 38 -72 82 -72 85 0 104
141 22 170 -16 5 -30 10 -31 9 -1 0 -11 -4 -23 -9z m61 -42 c21 -30 20 -64 -3
-87 -26 -26 -57 -17 -70 20 -23 67 36 120 73 67z"/>
<path d="M3372 7964 c-12 -8 -22 -10 -22 -5 0 6 -7 11 -15 11 -12 0 -15 -16
-15 -85 0 -69 3 -85 15 -85 12 0 15 13 15 55 0 42 5 60 20 75 11 11 25 20 30
20 6 0 10 7 10 15 0 19 -10 19 -38 -1z"/>
<path d="M2760 7885 c0 -69 3 -85 15 -85 12 0 15 16 15 85 0 69 -3 85 -15 85
-12 0 -15 -16 -15 -85z"/>
<path d="M3440 7968 c0 -2 14 -39 30 -83 36 -97 37 -103 5 -115 -32 -12 -32
-30 -2 -30 34 0 49 23 89 133 32 88 34 97 17 97 -13 0 -22 -15 -35 -57 -10
-32 -21 -62 -24 -66 -4 -5 -16 21 -26 57 -14 49 -23 66 -36 66 -10 0 -18 -1
-18 -2z"/>
<path d="M21087 7214 c-4 -4 -7 -22 -7 -39 0 -30 -3 -33 -38 -39 -50 -8 -77
-37 -77 -86 0 -49 27 -78 77 -86 38 -7 38 -7 38 -55 l0 -48 -57 -3 c-44 -2
-58 -7 -58 -18 0 -11 14 -16 57 -18 l57 -3 3 -37 c4 -51 32 -51 36 -1 3 34 6
37 41 43 49 8 76 37 76 86 0 49 -27 78 -77 86 -38 7 -38 7 -38 55 l0 48 48 3
c34 2 47 7 47 18 0 11 -13 16 -47 18 -46 3 -47 4 -50 39 -3 35 -17 51 -31 37z
m-7 -164 c0 -46 -2 -50 -24 -50 -29 0 -56 24 -56 50 0 26 27 50 56 50 22 0 24
-4 24 -50z m104 -106 c33 -32 8 -84 -40 -84 -22 0 -24 4 -24 50 0 46 2 50 24
50 14 0 32 -7 40 -16z"/>
<path d="M11065 7180 c-4 -7 -3 -16 3 -22 14 -14 45 -2 40 15 -6 16 -34 21
-43 7z"/>
<path d="M7854 7165 c-12 -8 -29 -30 -38 -49 -55 -117 46 -236 158 -185 27 13
56 64 56 98 0 19 -6 21 -50 21 -38 0 -50 -4 -50 -15 0 -10 10 -15 30 -15 38 0
39 -21 4 -49 -30 -24 -43 -26 -77 -10 -45 21 -61 93 -32 148 24 48 82 56 113
16 22 -27 52 -34 52 -11 0 8 -14 26 -31 40 -35 30 -101 35 -135 11z"/>
<path d="M8552 7164 c-24 -16 -30 -54 -9 -54 7 0 18 9 25 20 23 37 82 23 82
-21 0 -22 -16 -46 -65 -98 -36 -37 -65 -74 -65 -80 0 -7 29 -11 85 -11 68 0
85 3 85 15 0 10 -15 15 -56 17 l-55 3 55 64 c62 71 70 103 36 139 -25 26 -85
30 -118 6z"/>
<path d="M8760 7165 c0 -12 14 -15 65 -15 36 0 65 -3 65 -6 0 -4 -25 -53 -55
-109 -30 -57 -55 -106 -55 -109 0 -3 8 -6 18 -6 12 0 34 33 75 115 31 63 57
122 57 130 0 12 -16 15 -85 15 -69 0 -85 -3 -85 -15z"/>
<path d="M9190 7077 c0 -104 -7 -127 -39 -127 -8 0 -22 7 -32 16 -10 9 -25 14
-34 12 -15 -3 -14 -6 5 -30 30 -39 90 -39 119 -2 18 23 21 41 21 130 0 97 -1
104 -20 104 -19 0 -20 -7 -20 -103z"/>
<path d="M9500 7050 c0 -123 1 -130 20 -130 19 0 20 7 20 130 0 123 -1 130
-20 130 -19 0 -20 -7 -20 -130z"/>
<path d="M9920 7160 c-11 -11 -20 -27 -20 -35 0 -22 27 -18 40 5 14 27 65 27
80 0 14 -27 -5 -62 -69 -125 -28 -27 -51 -57 -51 -67 0 -16 10 -18 85 -18 69
0 85 3 85 15 0 12 -14 15 -62 15 l-62 0 35 38 c59 62 79 93 79 123 0 42 -32
69 -80 69 -27 0 -47 -7 -60 -20z"/>
<path d="M10172 7173 c-60 -24 -58 -223 3 -247 38 -14 82 -6 106 20 21 23 24
35 24 104 0 69 -3 81 -24 104 -24 25 -73 34 -109 19z m80 -40 c21 -25 28 -72
18 -118 -11 -50 -31 -69 -63 -61 -65 16 -59 196 6 196 13 0 31 -8 39 -17z"/>
<path d="M10391 7154 c-11 -15 -21 -31 -21 -35 0 -17 35 -9 48 11 14 22 51 27
70 8 24 -24 11 -55 -53 -125 -36 -39 -65 -76 -65 -82 0 -7 30 -11 85 -11 69 0
85 3 85 15 0 12 -13 15 -55 15 -30 0 -55 3 -55 7 0 3 22 30 50 58 60 64 70 96
43 133 -16 21 -30 28 -65 30 -40 3 -49 -1 -67 -24z"/>
<path d="M10637 7162 c-38 -42 -48 -126 -23 -187 38 -90 154 -68 171 33 10 59
-3 121 -31 149 -29 29 -93 32 -117 5z m100 -42 c16 -32 17 -101 1 -135 -16
-36 -56 -44 -80 -15 -24 29 -25 126 -2 158 21 31 64 26 81 -8z"/>
<path d="M11160 7050 c0 -109 2 -130 15 -130 13 0 15 21 15 130 0 109 -2 130
-15 130 -13 0 -15 -21 -15 -130z"/>
<path d="M11250 7050 c0 -109 2 -130 15 -130 13 0 15 21 15 130 0 109 -2 130
-15 130 -13 0 -15 -21 -15 -130z"/>
<path d="M11493 7159 c-18 -12 -33 -27 -33 -35 0 -18 10 -17 34 1 11 8 23 15
28 15 4 0 8 -49 8 -110 0 -91 3 -110 15 -110 13 0 15 21 15 130 0 146 -3 150
-67 109z"/>
<path d="M11700 7160 c-11 -11 -20 -27 -20 -35 0 -22 27 -18 40 5 14 27 65 27
80 0 14 -27 -5 -62 -69 -125 -28 -27 -51 -57 -51 -67 0 -16 10 -18 85 -18 69
0 85 3 85 15 0 12 -14 15 -62 15 l-62 0 35 38 c59 62 79 93 79 123 0 42 -32
69 -80 69 -27 0 -47 -7 -60 -20z"/>
<path d="M8300 7140 c0 -11 -7 -20 -15 -20 -8 0 -15 -7 -15 -15 0 -8 7 -15 15
-15 12 0 15 -14 15 -69 0 -77 13 -101 56 -101 29 0 31 15 4 30 -17 9 -20 21
-20 75 0 58 2 65 20 65 11 0 20 5 20 11 0 6 -9 13 -20 16 -11 3 -20 14 -20 24
0 12 -7 19 -20 19 -13 0 -20 -7 -20 -20z"/>
<path d="M10950 7140 c0 -11 -7 -20 -15 -20 -8 0 -15 -6 -15 -14 0 -8 7 -16
15 -20 11 -4 15 -22 15 -74 0 -75 9 -92 52 -92 20 0 26 4 22 15 -4 8 -12 15
-19 15 -18 0 -25 23 -25 82 0 41 3 51 20 55 11 3 20 12 20 19 0 8 -9 14 -20
14 -13 0 -20 7 -20 20 0 11 -7 20 -15 20 -8 0 -15 -9 -15 -20z"/>
<path d="M8098 7090 c-28 -28 -30 -35 -26 -82 6 -63 32 -88 89 -88 27 0 46 7
61 22 21 21 21 23 4 26 -10 2 -23 -1 -29 -7 -15 -15 -60 -14 -75 1 -7 7 -12
20 -12 30 0 15 9 18 65 18 64 0 65 0 65 28 -1 31 -16 54 -47 70 -35 19 -63 14
-95 -18z m92 -20 c12 -12 18 -25 15 -30 -9 -15 -95 -12 -95 3 0 17 12 33 30
40 25 9 29 8 50 -13z"/>
<path d="M9290 7037 c0 -92 13 -117 60 -117 13 0 32 7 42 17 17 15 18 15 18 0
0 -10 8 -17 20 -17 20 0 21 5 18 97 -3 84 -6 98 -20 101 -16 3 -18 -5 -18 -66
0 -54 -4 -72 -18 -85 -44 -40 -72 -7 -72 84 0 55 -3 69 -15 69 -12 0 -15 -16
-15 -83z"/>
<path d="M9580 7109 c0 -7 14 -50 31 -96 34 -94 35 -126 2 -131 -13 -2 -23
-10 -23 -18 0 -15 37 -19 56 -6 6 4 18 21 26 37 26 52 81 215 75 221 -16 16
-34 -10 -55 -76 -13 -39 -26 -70 -28 -67 -2 2 -15 35 -28 73 -14 44 -29 70
-39 72 -10 2 -17 -2 -17 -9z"/>
<path d="M11070 7020 c0 -82 3 -100 15 -100 12 0 15 18 15 100 0 82 -3 100
-15 100 -12 0 -15 -18 -15 -100z"/>
<path d="M11910 6985 c0 -113 2 -135 15 -135 11 0 15 12 15 52 0 49 1 50 18
35 29 -26 77 -22 101 9 25 32 28 109 6 141 -20 29 -60 37 -96 19 -25 -12 -29
-12 -29 0 0 8 -7 14 -15 14 -13 0 -15 -22 -15 -135z m104 99 c8 -3 20 -21 26
-40 16 -48 -4 -89 -45 -89 -41 0 -61 41 -45 90 13 40 31 51 64 39z"/>
<path d="M12130 7020 c0 -93 1 -100 20 -100 18 0 20 7 20 75 0 65 3 76 21 85
36 20 49 -3 49 -86 0 -67 2 -74 20 -74 18 0 20 7 20 75 0 63 3 76 19 85 25 13
27 13 45 -6 12 -11 16 -35 16 -85 0 -55 3 -69 15 -69 13 0 15 14 13 87 -3 84
-4 88 -31 103 -25 14 -30 13 -58 -2 -27 -16 -32 -16 -45 -3 -20 19 -48 19 -68
0 -8 -8 -17 -15 -20 -15 -3 0 -6 7 -6 15 0 8 -7 15 -15 15 -12 0 -15 -18 -15
-100z"/>
<path d="M17290 7077 c0 -7 -13 -18 -30 -24 -39 -15 -57 -54 -41 -89 6 -14 25
-31 41 -37 26 -10 30 -16 30 -49 0 -42 -13 -49 -32 -18 -16 26 -48 26 -48 1 0
-21 44 -61 66 -61 8 0 14 -7 14 -15 0 -8 7 -15 15 -15 8 0 15 7 15 15 0 8 6
15 14 15 7 0 25 10 40 21 22 17 27 28 24 58 -3 30 -9 39 -40 56 -32 17 -38 25
-38 53 0 33 16 44 26 17 7 -17 54 -21 54 -5 0 17 -47 60 -65 60 -8 0 -15 7
-15 15 0 8 -7 15 -15 15 -8 0 -15 -6 -15 -13z m0 -87 c0 -22 -4 -28 -15 -24
-15 6 -20 35 -8 47 14 15 23 6 23 -23z m64 -107 c7 -16 -10 -43 -25 -43 -5 0
-9 16 -9 35 0 26 4 33 14 29 8 -3 17 -13 20 -21z"/>
<path d="M21722 7077 c-48 -27 -70 -91 -52 -156 14 -51 51 -81 102 -81 41 0
88 34 88 65 0 21 -4 19 -38 -15 -38 -38 -66 -38 -103 -1 -37 37 -41 104 -8
145 29 36 91 37 115 1 9 -14 23 -25 31 -25 25 0 -17 58 -50 70 -38 13 -57 12
-85 -3z"/>
<path d="M22990 7075 c0 -10 7 -15 18 -13 21 4 19 22 -2 26 -10 2 -16 -3 -16
-13z"/>
<path d="M23900 7046 c0 -13 -6 -27 -12 -30 -10 -5 -10 -7 0 -12 7 -3 12 -27
12 -63 0 -63 19 -101 51 -101 25 0 25 16 -1 23 -17 4 -20 14 -20 71 0 59 2 66
20 66 11 0 20 5 20 10 0 6 -9 10 -20 10 -15 0 -20 7 -20 25 0 16 -6 25 -15 25
-9 0 -15 -9 -15 -24z"/>
<path d="M17566 7037 c-45 -45 -45 -163 -1 -211 17 -19 34 -26 60 -26 49 0 74
15 91 55 28 67 10 171 -34 194 -36 19 -91 13 -116 -12z m94 -27 c15 -15 20
-33 20 -76 0 -71 -12 -94 -50 -94 -40 0 -53 28 -48 103 3 43 10 63 23 73 25
18 31 18 55 -6z"/>
<path d="M17922 7053 c-17 -6 -42 -57 -42 -83 0 -26 52 -80 77 -80 10 0 31 7
47 15 28 15 28 15 21 -12 -4 -16 -11 -34 -17 -40 -14 -18 -53 -16 -68 2 -15
19 -50 20 -50 2 0 -42 83 -72 131 -47 63 34 66 220 4 244 -19 7 -84 7 -103 -1z
m79 -33 c22 -12 26 -59 7 -78 -7 -7 -21 -12 -33 -12 -29 0 -45 19 -45 52 0 39
34 57 71 38z"/>
<path d="M18162 7053 c-17 -6 -42 -57 -42 -83 0 -26 52 -80 77 -80 10 0 31 7
47 15 28 15 28 15 21 -12 -4 -16 -11 -34 -17 -40 -14 -18 -53 -16 -68 2 -15
19 -50 20 -50 2 0 -42 83 -72 131 -47 63 34 66 220 4 244 -19 7 -84 7 -103 -1z
m79 -33 c22 -12 26 -59 7 -78 -7 -7 -21 -12 -33 -12 -29 0 -45 19 -45 52 0 39
34 57 71 38z"/>
<path d="M21961 7019 c-36 -14 -50 -39 -51 -87 -1 -117 144 -127 157 -11 4 38
1 50 -18 71 -29 32 -56 40 -88 27z m74 -54 c24 -55 -10 -113 -59 -101 -43 11
-56 82 -24 124 6 6 24 12 40 12 24 0 32 -6 43 -35z"/>
<path d="M22180 7022 c-8 -3 -19 -10 -23 -16 -6 -8 -10 -7 -14 2 -14 34 -23 3
-23 -78 0 -53 4 -90 10 -90 6 0 10 24 10 54 0 79 13 106 49 106 39 0 51 -23
51 -99 0 -34 4 -61 10 -61 15 0 13 143 -2 162 -15 18 -46 27 -68 20z"/>
<path d="M22533 7015 c-78 -33 -52 -175 32 -175 38 0 81 28 66 43 -6 6 -15 4
-26 -7 -22 -22 -51 -20 -76 5 -32 32 -19 44 49 47 55 3 62 5 62 23 0 54 -54
86 -107 64z m75 -42 c14 -23 14 -23 -42 -23 -61 0 -65 4 -39 32 22 24 61 20
81 -9z"/>
<path d="M22738 7016 c-16 -8 -28 -11 -28 -5 0 5 -4 9 -10 9 -6 0 -10 -37 -10
-90 0 -73 3 -90 15 -90 12 0 15 14 15 68 0 70 10 92 42 92 10 0 18 7 18 15 0
19 -8 19 -42 1z"/>
<path d="M22865 7022 c-30 -6 -45 -22 -45 -47 0 -27 13 -39 63 -54 25 -9 37
-19 37 -31 0 -31 -48 -40 -74 -14 -23 22 -42 7 -20 -17 21 -23 71 -25 102 -3
42 29 19 75 -45 88 -31 7 -49 29 -37 47 8 13 58 11 72 -3 16 -16 28 -2 13 16
-14 17 -39 24 -66 18z"/>
<path d="M23121 7019 c-36 -14 -50 -39 -51 -87 -1 -117 144 -127 157 -11 4 38
1 50 -18 71 -29 32 -56 40 -88 27z m74 -54 c24 -55 -10 -113 -59 -101 -43 11
-56 82 -24 124 6 6 24 12 40 12 24 0 32 -6 43 -35z"/>
<path d="M23340 7022 c-8 -3 -19 -10 -23 -16 -6 -8 -10 -7 -14 2 -14 34 -23 3
-23 -78 0 -53 4 -90 10 -90 6 0 10 24 10 54 0 79 13 106 49 106 39 0 51 -23
51 -99 0 -34 4 -61 10 -61 15 0 13 143 -2 162 -15 18 -46 27 -68 20z"/>
<path d="M23622 7014 c-12 -8 -22 -10 -22 -5 0 6 -7 11 -15 11 -12 0 -15 -17
-15 -90 0 -73 3 -90 15 -90 12 0 15 14 15 68 0 70 10 92 42 92 10 0 18 7 18
15 0 19 -10 19 -38 -1z"/>
<path d="M23738 7019 c-14 -6 -29 -17 -32 -25 -6 -16 15 -19 31 -3 18 18 68 7
71 -17 3 -18 -4 -22 -40 -28 -71 -11 -99 -54 -60 -89 21 -19 54 -22 83 -7 13
7 19 7 19 0 0 -5 7 -10 16 -10 14 0 16 11 12 75 -3 77 -14 98 -53 108 -11 3
-32 1 -47 -4z m72 -108 c0 -23 -25 -51 -45 -51 -46 0 -63 44 -22 60 39 16 67
12 67 -9z"/>
<path d="M24053 7015 c-78 -33 -52 -175 32 -175 38 0 81 28 66 43 -6 6 -15 4
-26 -7 -22 -22 -51 -20 -76 5 -32 32 -19 44 49 47 55 3 62 5 62 23 0 54 -54
86 -107 64z m75 -42 c14 -23 14 -23 -42 -23 -61 0 -65 4 -39 32 22 24 61 20
81 -9z"/>
<path d="M22303 7008 c2 -7 17 -48 33 -91 19 -50 34 -77 42 -75 8 2 27 39 43
82 32 89 34 99 17 94 -6 -2 -21 -32 -32 -65 -12 -34 -24 -65 -28 -68 -3 -4
-17 25 -29 64 -14 44 -28 71 -37 71 -8 0 -12 -6 -9 -12z"/>
<path d="M23000 6930 c0 -53 4 -90 10 -90 6 0 10 37 10 90 0 53 -4 90 -10 90
-6 0 -10 -37 -10 -90z"/>
<path d="M26636 6971 c-41 -46 -41 -146 0 -188 31 -31 83 -31 113 1 40 42 40
147 0 187 -25 25 -90 26 -113 0z m88 -33 c34 -48 10 -148 -34 -148 -26 0 -43
35 -42 86 1 77 42 111 76 62z"/>
<path d="M17784 6835 c-4 -9 -2 -21 4 -27 15 -15 44 -1 40 19 -4 23 -36 29
-44 8z"/>
<path d="M7800 6545 l0 -105 65 0 c51 0 65 3 65 15 0 11 -12 15 -50 15 -49 0
-50 1 -50 30 0 29 1 30 50 30 38 0 50 4 50 15 0 11 -12 15 -50 15 -49 0 -50 1
-50 30 0 29 1 30 50 30 38 0 50 4 50 15 0 12 -14 15 -65 15 l-65 0 0 -105z"/>
<path d="M7970 6594 c0 -4 9 -22 21 -40 l21 -34 -21 -36 c-25 -41 -25 -44 -8
-44 8 0 20 11 27 25 7 14 17 25 21 25 3 0 14 -11 23 -25 9 -14 23 -25 31 -25
12 0 9 9 -10 40 l-26 41 21 28 c11 16 20 34 20 40 0 21 -18 11 -38 -21 l-21
-32 -18 32 c-16 28 -43 44 -43 26z"/>
<path d="M8137 6593 c-4 -3 -7 -53 -7 -110 0 -85 3 -103 15 -103 11 0 15 11
15 42 0 33 3 39 12 30 18 -18 63 -14 83 8 27 29 24 99 -5 122 -28 22 -48 23
-72 1 -17 -15 -18 -15 -18 0 0 17 -11 22 -23 10z m103 -48 c21 -55 -29 -106
-62 -65 -10 12 -18 29 -18 37 0 52 62 74 80 28z"/>
<path d="M8310 6520 c0 -63 3 -80 15 -80 10 0 15 15 17 58 3 48 7 59 26 67 12
5 22 15 22 22 0 16 -6 16 -31 3 -13 -7 -19 -7 -19 0 0 5 -7 10 -15 10 -12 0
-15 -16 -15 -80z"/>
<path d="M8435 6575 c-31 -30 -33 -82 -5 -113 27 -28 80 -29 105 -2 18 19 17
20 -1 20 -11 0 -25 -5 -32 -12 -15 -15 -62 5 -62 27 0 12 12 15 55 15 49 0 55
2 55 20 0 27 -43 70 -70 70 -11 0 -32 -11 -45 -25z m75 -9 c0 -2 3 -11 6 -20
5 -13 -2 -16 -35 -16 -42 0 -50 7 -29 28 11 11 58 17 58 8z"/>
<path d="M8614 6590 c-47 -19 -30 -72 26 -83 17 -4 30 -13 30 -21 0 -23 -19
-29 -51 -16 -35 15 -46 9 -24 -14 9 -9 32 -16 50 -16 66 0 80 71 17 86 -15 4
-33 12 -40 17 -21 17 14 40 40 26 28 -15 44 -6 24 14 -19 18 -39 21 -72 7z"/>
<path d="M8763 6588 c-14 -7 -23 -20 -23 -34 0 -25 10 -34 54 -49 16 -5 31
-15 33 -22 6 -16 -36 -28 -50 -14 -6 6 -20 11 -31 11 -18 0 -19 -1 -1 -20 24
-26 76 -26 100 0 24 27 13 49 -35 67 -39 16 -52 37 -27 46 6 2 22 -1 35 -6 29
-13 42 1 18 19 -23 16 -42 17 -73 2z"/>
<path d="M21165 5910 c-11 -17 5 -30 38 -30 30 0 25 -7 -128 -160 -127 -127
-157 -162 -147 -172 10 -10 45 20 171 146 l159 159 4 -34 c2 -22 8 -34 18 -34
12 0 15 14 15 65 l0 65 -62 3 c-35 2 -64 -2 -68 -8z"/>
<path d="M20924 5889 c-4 -6 20 -38 55 -72 48 -49 63 -59 73 -49 10 10 0 25
-47 72 -62 63 -69 67 -81 49z"/>
<path d="M21670 5705 c0 -104 2 -125 15 -125 11 0 15 12 15 50 0 49 1 50 29
50 25 0 34 -8 58 -50 15 -27 34 -50 41 -50 17 0 15 7 -14 57 -25 44 -25 44 -5
61 23 19 28 45 18 84 -8 30 -52 48 -119 48 l-38 0 0 -125z m135 61 c8 -24 6
-31 -14 -47 -13 -10 -38 -19 -57 -19 l-34 0 0 51 0 50 47 -3 c42 -3 49 -6 58
-32z"/>
<path d="M22270 5815 c0 -8 7 -15 15 -15 8 0 15 7 15 15 0 8 -7 15 -15 15 -8
0 -15 -7 -15 -15z"/>
<path d="M22555 5821 c-7 -12 12 -24 25 -16 11 7 4 25 -10 25 -5 0 -11 -4 -15
-9z"/>
<path d="M23050 5790 c0 -11 -7 -23 -15 -26 -8 -4 -15 -10 -15 -15 0 -5 7 -9
15 -9 12 0 15 -14 15 -68 0 -70 10 -92 42 -92 24 0 23 12 -2 28 -16 10 -20 23
-20 72 0 53 2 60 20 60 11 0 20 4 20 9 0 5 -9 11 -20 14 -12 3 -20 14 -20 26
0 12 -4 21 -10 21 -5 0 -10 -9 -10 -20z"/>
<path d="M23670 5786 c0 -13 -6 -27 -12 -30 -10 -5 -10 -7 0 -12 7 -3 12 -27
12 -63 0 -63 19 -101 51 -101 25 0 25 16 -1 23 -17 4 -20 14 -20 71 0 59 2 66
20 66 11 0 20 5 20 10 0 6 -9 10 -20 10 -15 0 -20 7 -20 25 0 16 -6 25 -15 25
-9 0 -15 -9 -15 -24z"/>
<path d="M21923 5755 c-78 -33 -52 -175 32 -175 38 0 81 28 66 43 -6 6 -15 4
-26 -7 -22 -22 -51 -20 -76 5 -32 32 -19 44 49 47 55 3 62 5 62 23 0 54 -54
86 -107 64z m75 -42 c14 -23 14 -23 -42 -23 -61 0 -65 4 -39 32 22 24 61 20
81 -9z"/>
<path d="M22135 5762 c-32 -6 -54 -32 -61 -69 -7 -39 11 -89 37 -103 30 -16
75 -11 94 10 23 25 12 39 -13 17 -41 -37 -92 -7 -92 54 1 63 50 91 92 52 20
-18 31 -14 22 10 -7 19 -51 35 -79 29z"/>
<path d="M22406 5755 c-14 -8 -26 -10 -26 -4 0 5 -7 9 -15 9 -13 0 -15 -21
-15 -125 0 -104 2 -125 15 -125 11 0 15 12 15 51 0 46 1 49 16 35 24 -25 69
-20 93 10 23 29 28 92 11 124 -15 28 -63 41 -94 25z m62 -27 c49 -63 -12 -164
-68 -113 -22 20 -27 74 -10 106 12 22 62 26 78 7z"/>
<path d="M22695 5762 c-32 -7 -54 -32 -61 -69 -7 -39 11 -89 37 -103 39 -21
109 -5 109 25 0 19 -14 19 -30 0 -7 -8 -20 -15 -29 -15 -26 0 -61 29 -61 51 0
17 7 19 65 19 61 0 65 1 65 23 -1 43 -50 79 -95 69z m53 -34 c26 -26 13 -38
-38 -38 -54 0 -55 1 -40 31 12 22 59 26 78 7z"/>
<path d="M22900 5762 c-8 -3 -19 -10 -23 -16 -6 -8 -10 -7 -14 2 -14 34 -23 3
-23 -78 0 -53 4 -90 10 -90 6 0 10 24 10 54 0 79 13 106 49 106 39 0 51 -23
51 -99 0 -34 4 -61 10 -61 15 0 13 143 -2 162 -15 18 -46 27 -68 20z"/>
<path d="M23303 5762 c-52 -8 -74 -111 -33 -152 22 -22 79 -27 98 -8 9 9 12 5
12 -20 0 -47 -61 -72 -90 -37 -10 12 -16 13 -24 5 -16 -17 20 -40 61 -40 23 0
42 8 58 25 23 22 25 31 25 125 0 82 -3 100 -15 100 -8 0 -15 -5 -15 -11 0 -8
-4 -8 -12 -2 -19 14 -40 19 -65 15z m67 -41 c26 -50 4 -111 -40 -111 -32 0
-60 30 -60 65 0 56 76 90 100 46z"/>
<path d="M23503 5755 c-78 -33 -52 -175 32 -175 38 0 81 28 66 43 -6 6 -15 4
-26 -7 -22 -22 -51 -20 -76 5 -32 32 -19 44 49 47 55 3 62 5 62 23 0 54 -54
86 -107 64z m75 -42 c14 -23 14 -23 -42 -23 -61 0 -65 4 -39 32 22 24 61 20
81 -9z"/>
<path d="M23825 5762 c-30 -6 -45 -22 -45 -47 0 -27 13 -39 63 -55 30 -9 38
-16 35 -33 -4 -27 -49 -35 -68 -13 -16 20 -30 20 -30 1 0 -36 86 -48 115 -15
25 27 13 68 -23 76 -42 10 -72 32 -66 49 7 17 59 21 69 5 9 -15 25 -12 25 4 0
17 -47 34 -75 28z"/>
<path d="M22270 5670 c0 -73 3 -90 15 -90 12 0 15 17 15 90 0 73 -3 90 -15 90
-12 0 -15 -17 -15 -90z"/>
<path d="M22560 5670 c0 -53 4 -90 10 -90 6 0 10 37 10 90 0 53 -4 90 -10 90
-6 0 -10 -37 -10 -90z"/>
<path d="M26109 5704 c-20 -21 -24 -36 -24 -84 0 -81 25 -115 85 -115 60 0 85
34 85 115 -1 48 -5 64 -25 85 -33 35 -88 35 -121 -1z m91 -19 c18 -22 23 -96
8 -125 -9 -16 -22 -25 -38 -25 -33 0 -52 38 -47 92 5 48 21 73 47 73 10 0 23
-7 30 -15z"/>
<path d="M26427 5718 c-49 -38 -47 -181 3 -208 29 -15 76 -12 99 8 44 34 46
147 5 193 -20 22 -81 26 -107 7z m83 -39 c13 -23 16 -86 6 -117 -11 -33 -46
-39 -68 -12 -22 28 -24 97 -2 128 19 28 50 28 64 1z"/>
<path d="M26636 5711 c-41 -46 -41 -146 0 -188 31 -31 83 -31 113 1 40 42 40
147 0 187 -25 25 -90 26 -113 0z m88 -33 c34 -48 10 -148 -34 -148 -26 0 -43
35 -42 86 1 77 42 111 76 62z"/>
<path d="M21144 5669 c-3 -6 15 -33 41 -59 l48 -49 -34 -3 c-22 -2 -34 -8 -34
-18 0 -12 14 -15 65 -15 l65 0 0 65 c0 51 -3 65 -15 65 -9 0 -17 -13 -20 -33
l-5 -33 -45 45 c-47 48 -55 53 -66 35z"/>
<path d="M26311 5536 c-14 -17 -7 -36 14 -36 22 0 29 20 13 36 -13 13 -16 13
-27 0z"/>
<path d="M1992 4948 c-6 -6 -12 -17 -12 -24 0 -7 -15 -11 -37 -10 -37 1 -38 0
-37 -36 1 -29 -4 -38 -23 -47 -30 -14 -28 -52 3 -65 16 -7 21 -18 20 -45 -1
-35 0 -36 36 -35 29 1 38 -4 47 -23 14 -30 52 -28 65 3 7 16 18 21 45 20 35
-1 36 0 35 35 -1 27 4 38 20 45 28 12 28 56 0 68 -16 7 -21 18 -20 45 1 35 0
36 -35 35 -27 -1 -38 4 -45 20 -11 24 -44 32 -62 14z m45 -35 c9 -26 24 -33
45 -22 24 13 41 2 29 -18 -12 -22 -2 -51 20 -58 25 -8 24 -26 -2 -32 -18 -5
-20 -11 -16 -39 6 -38 1 -47 -24 -34 -23 13 -46 4 -52 -21 -7 -24 -24 -25 -32
0 -7 24 -34 35 -51 20 -18 -15 -37 -2 -25 18 12 22 2 50 -20 56 -25 7 -24 24
2 32 18 6 20 13 16 40 -6 39 -1 48 24 35 23 -13 46 -4 52 21 6 24 25 25 34 2z"/>
<path d="M1982 4838 c-7 -7 -12 -24 -12 -38 0 -33 17 -50 50 -50 33 0 50 17
50 50 0 33 -17 50 -50 50 -14 0 -31 -5 -38 -12z m58 -24 c11 -12 10 -18 -3
-32 -16 -15 -18 -15 -34 0 -13 14 -14 20 -3 32 7 9 16 16 20 16 4 0 13 -7 20
-16z"/>
<path d="M3154 4929 c-7 -12 15 -31 28 -23 4 3 8 12 8 20 0 17 -26 19 -36 3z"/>
<path d="M2541 4904 c-12 -15 -21 -30 -21 -33 0 -21 37 -52 81 -66 45 -15 50
-20 47 -43 -3 -23 -8 -27 -39 -30 -23 -2 -40 2 -49 12 -14 18 -40 21 -40 6 0
-5 9 -19 20 -30 29 -29 99 -28 128 3 41 43 21 82 -54 107 -59 20 -73 53 -29
70 27 10 65 -1 65 -20 0 -6 7 -10 15 -10 8 0 15 6 15 13 0 26 -36 47 -78 47
-32 0 -45 -6 -61 -26z"/>
<path d="M2930 4895 c0 -16 -6 -25 -15 -25 -8 0 -15 -4 -15 -10 0 -5 7 -10 15
-10 12 0 15 -13 15 -56 0 -68 13 -94 45 -94 30 0 34 25 5 33 -17 4 -20 14 -20
57 0 43 3 53 20 57 11 3 20 9 20 13 0 4 -9 10 -20 13 -12 3 -20 14 -20 26 0
12 -6 21 -15 21 -9 0 -15 -9 -15 -25z"/>
<path d="M3050 4900 c0 -11 -7 -23 -15 -26 -8 -4 -15 -10 -15 -15 0 -5 7 -9
15 -9 12 0 15 -14 15 -63 0 -68 10 -87 47 -87 28 0 30 16 3 30 -16 9 -20 21
-20 65 0 48 2 55 20 55 11 0 20 5 20 10 0 6 -9 10 -20 10 -15 0 -20 7 -20 25
0 16 -6 25 -15 25 -8 0 -15 -9 -15 -20z"/>
<path d="M2773 4870 c-56 -22 -69 -114 -22 -152 28 -24 81 -23 103 1 23 25 4
37 -26 17 -29 -18 -68 -5 -68 24 0 18 6 20 60 20 l60 0 -6 28 c-12 50 -58 79
-101 62z m55 -32 c24 -24 13 -38 -28 -38 -26 0 -40 5 -40 13 0 18 21 37 40 37
9 0 21 -5 28 -12z"/>
<path d="M3292 4864 c-12 -8 -22 -10 -22 -5 0 6 -7 11 -15 11 -12 0 -15 -16
-15 -85 0 -69 3 -85 15 -85 12 0 15 14 15 65 0 61 2 66 26 77 37 17 54 -9 54
-84 0 -45 3 -58 15 -58 12 0 15 14 15 68 0 39 -5 75 -12 84 -20 25 -51 30 -76
12z"/>
<path d="M3463 4870 c-27 -11 -43 -40 -43 -80 0 -63 44 -99 96 -80 24 9 25 8
22 -17 -2 -22 -9 -29 -31 -31 -16 -2 -35 2 -43 9 -10 8 -18 9 -25 2 -16 -16
19 -38 62 -38 63 0 73 19 77 135 4 96 3 100 -17 100 -12 0 -21 -5 -21 -11 0
-5 -10 -3 -22 5 -25 18 -25 18 -55 6z m58 -30 c14 -8 19 -21 19 -48 0 -61 -43
-84 -74 -40 -21 30 -20 54 4 78 23 23 25 23 51 10z"/>
<path d="M3160 4785 c0 -69 3 -85 15 -85 12 0 15 16 15 85 0 69 -3 85 -15 85
-12 0 -15 -16 -15 -85z"/>
<path d="M11065 4800 c-4 -7 -3 -16 3 -22 14 -14 45 -2 40 15 -6 16 -34 21
-43 7z"/>
<path d="M7854 4785 c-12 -8 -29 -30 -38 -49 -55 -117 46 -236 158 -185 27 13
56 64 56 98 0 19 -6 21 -50 21 -38 0 -50 -4 -50 -15 0 -10 10 -15 30 -15 38 0
39 -21 4 -49 -30 -24 -43 -26 -77 -10 -45 21 -61 93 -32 148 24 48 82 56 113
16 22 -27 52 -34 52 -11 0 8 -14 26 -31 40 -35 30 -101 35 -135 11z"/>
<path d="M8552 4784 c-24 -16 -30 -54 -9 -54 7 0 18 9 25 20 23 37 82 23 82
-21 0 -22 -16 -46 -65 -98 -36 -37 -65 -74 -65 -80 0 -7 29 -11 85 -11 68 0
85 3 85 15 0 10 -15 15 -56 17 l-55 3 55 64 c62 71 70 103 36 139 -25 26 -85
30 -118 6z"/>
<path d="M8760 4785 c0 -12 14 -15 65 -15 36 0 65 -3 65 -6 0 -4 -25 -53 -55
-109 -30 -57 -55 -106 -55 -109 0 -3 8 -6 18 -6 12 0 34 33 75 115 31 63 57
122 57 130 0 12 -16 15 -85 15 -69 0 -85 -3 -85 -15z"/>
<path d="M9190 4697 c0 -104 -7 -127 -39 -127 -8 0 -22 7 -32 16 -10 9 -25 14
-34 12 -15 -3 -14 -6 5 -30 30 -39 90 -39 119 -2 18 23 21 41 21 130 0 97 -1
104 -20 104 -19 0 -20 -7 -20 -103z"/>
<path d="M9500 4670 c0 -123 1 -130 20 -130 19 0 20 7 20 130 0 123 -1 130
-20 130 -19 0 -20 -7 -20 -130z"/>
<path d="M9920 4780 c-11 -11 -20 -27 -20 -35 0 -22 27 -18 40 5 14 27 65 27
80 0 14 -27 -5 -62 -69 -125 -28 -27 -51 -57 -51 -67 0 -16 10 -18 85 -18 69
0 85 3 85 15 0 12 -14 15 -62 15 l-62 0 35 38 c59 62 79 93 79 123 0 42 -32
69 -80 69 -27 0 -47 -7 -60 -20z"/>
<path d="M10172 4793 c-60 -24 -58 -223 3 -247 38 -14 82 -6 106 20 21 23 24
35 24 104 0 69 -3 81 -24 104 -24 25 -73 34 -109 19z m80 -40 c21 -25 28 -72
18 -118 -11 -50 -31 -69 -63 -61 -65 16 -59 196 6 196 13 0 31 -8 39 -17z"/>
<path d="M10391 4774 c-11 -15 -21 -31 -21 -35 0 -17 35 -9 48 11 14 22 51 27
70 8 24 -24 11 -55 -53 -125 -36 -39 -65 -76 -65 -82 0 -7 30 -11 85 -11 69 0
85 3 85 15 0 12 -13 15 -55 15 -30 0 -55 3 -55 7 0 3 22 30 50 58 60 64 70 96
43 133 -16 21 -30 28 -65 30 -40 3 -49 -1 -67 -24z"/>
<path d="M10637 4782 c-38 -42 -48 -126 -23 -187 38 -90 154 -68 171 33 10 59
-3 121 -31 149 -29 29 -93 32 -117 5z m100 -42 c16 -32 17 -101 1 -135 -16
-36 -56 -44 -80 -15 -24 29 -25 126 -2 158 21 31 64 26 81 -8z"/>
<path d="M11160 4670 c0 -109 2 -130 15 -130 13 0 15 21 15 130 0 109 -2 130
-15 130 -13 0 -15 -21 -15 -130z"/>
<path d="M11250 4670 c0 -109 2 -130 15 -130 13 0 15 21 15 130 0 109 -2 130
-15 130 -13 0 -15 -21 -15 -130z"/>
<path d="M11471 4781 c-38 -38 -51 -127 -27 -186 25 -58 93 -74 141 -32 75 64
-12 188 -93 131 -21 -14 -22 -14 -22 8 0 59 59 88 95 48 21 -23 45 -26 45 -7
0 8 -10 23 -23 35 -30 28 -89 30 -116 3z m96 -127 c15 -24 15 -29 2 -53 -11
-19 -23 -26 -44 -26 -21 0 -33 7 -44 26 -13 24 -13 29 2 53 11 16 27 26 42 26
15 0 31 -10 42 -26z"/>
<path d="M8300 4760 c0 -11 -7 -20 -15 -20 -8 0 -15 -7 -15 -15 0 -8 7 -15 15
-15 12 0 15 -14 15 -69 0 -77 13 -101 56 -101 29 0 31 15 4 30 -17 9 -20 21
-20 75 0 58 2 65 20 65 11 0 20 5 20 11 0 6 -9 13 -20 16 -11 3 -20 14 -20 24
0 12 -7 19 -20 19 -13 0 -20 -7 -20 -20z"/>
<path d="M10950 4760 c0 -11 -7 -20 -15 -20 -8 0 -15 -6 -15 -14 0 -8 7 -16
15 -20 11 -4 15 -22 15 -74 0 -75 9 -92 52 -92 20 0 26 4 22 15 -4 8 -12 15
-19 15 -18 0 -25 23 -25 82 0 41 3 51 20 55 11 3 20 12 20 19 0 8 -9 14 -20
14 -13 0 -20 7 -20 20 0 11 -7 20 -15 20 -8 0 -15 -9 -15 -20z"/>
<path d="M8098 4710 c-28 -28 -30 -35 -26 -82 6 -63 32 -88 89 -88 27 0 46 7
61 22 21 21 21 23 4 26 -10 2 -23 -1 -29 -7 -15 -15 -60 -14 -75 1 -7 7 -12
20 -12 30 0 15 9 18 65 18 64 0 65 0 65 28 -1 31 -16 54 -47 70 -35 19 -63 14
-95 -18z m92 -20 c12 -12 18 -25 15 -30 -9 -15 -95 -12 -95 3 0 17 12 33 30
40 25 9 29 8 50 -13z"/>
<path d="M9290 4657 c0 -92 13 -117 60 -117 13 0 32 7 42 17 17 15 18 15 18 0
0 -10 8 -17 20 -17 20 0 21 5 18 97 -3 84 -6 98 -20 101 -16 3 -18 -5 -18 -66
0 -54 -4 -72 -18 -85 -44 -40 -72 -7 -72 84 0 55 -3 69 -15 69 -12 0 -15 -16
-15 -83z"/>
<path d="M9580 4729 c0 -7 14 -50 31 -96 34 -94 35 -126 2 -131 -13 -2 -23
-10 -23 -18 0 -15 37 -19 56 -6 6 4 18 21 26 37 26 52 81 215 75 221 -16 16
-34 -10 -55 -76 -13 -39 -26 -70 -28 -67 -2 2 -15 35 -28 73 -14 44 -29 70
-39 72 -10 2 -17 -2 -17 -9z"/>
<path d="M11070 4640 c0 -82 3 -100 15 -100 12 0 15 18 15 100 0 82 -3 100
-15 100 -12 0 -15 -18 -15 -100z"/>
<path d="M11670 4605 c0 -128 1 -135 20 -135 17 0 20 7 20 47 0 37 3 44 12 35
7 -7 26 -12 43 -12 62 0 99 77 71 144 -19 47 -56 64 -93 45 -16 -7 -31 -15
-35 -17 -5 -2 -8 3 -8 12 0 9 -7 16 -15 16 -13 0 -15 -22 -15 -135z m120 85
c38 -38 15 -120 -35 -120 -29 0 -45 26 -45 71 0 34 24 69 47 69 7 0 22 -9 33
-20z"/>
<path d="M11890 4640 c0 -93 1 -100 20 -100 18 0 20 7 20 75 0 63 3 76 19 85
25 13 27 13 45 -6 12 -11 16 -35 16 -85 0 -55 3 -69 15 -69 12 0 15 14 15 69
0 50 4 74 16 85 18 19 20 19 45 6 16 -9 19 -22 19 -85 0 -68 2 -75 20 -75 18
0 20 7 20 64 0 79 -12 113 -44 128 -20 9 -30 8 -51 -6 -23 -15 -28 -15 -47 -1
-29 19 -52 19 -69 -1 -11 -14 -13 -14 -21 0 -5 9 -16 16 -23 16 -12 0 -15 -19
-15 -100z"/>
<path d="M17290 4697 c0 -7 -13 -18 -30 -24 -39 -15 -57 -54 -41 -89 6 -14 25
-31 41 -37 26 -10 30 -16 30 -49 0 -42 -13 -49 -32 -18 -16 26 -48 26 -48 1 0
-21 44 -61 66 -61 8 0 14 -7 14 -15 0 -8 7 -15 15 -15 8 0 15 7 15 15 0 8 6
15 14 15 7 0 25 10 40 21 22 17 27 28 24 58 -3 30 -9 39 -40 56 -32 17 -38 25
-38 53 0 33 16 44 26 17 7 -17 54 -21 54 -5 0 17 -47 60 -65 60 -8 0 -15 7
-15 15 0 8 -7 15 -15 15 -8 0 -15 -6 -15 -13z m0 -87 c0 -22 -4 -28 -15 -24
-15 6 -20 35 -8 47 14 15 23 6 23 -23z m64 -107 c7 -16 -10 -43 -25 -43 -5 0
-9 16 -9 35 0 26 4 33 14 29 8 -3 17 -13 20 -21z"/>
<path d="M17598 4662 c-18 -11 -28 -26 -28 -40 0 -22 1 -22 22 -8 12 9 26 16
30 16 5 0 8 -47 8 -105 0 -98 1 -105 20 -105 19 0 20 7 20 130 0 128 0 130
-22 129 -13 0 -35 -8 -50 -17z"/>
<path d="M17927 4669 c-61 -36 -60 -205 1 -238 33 -18 90 -13 111 8 48 48 52
166 6 215 -26 28 -83 35 -118 15z m78 -33 c13 -10 20 -30 23 -74 4 -55 2 -63
-22 -87 -21 -21 -29 -24 -46 -15 -39 21 -46 134 -10 170 24 24 30 24 55 6z"/>
<path d="M18167 4669 c-61 -36 -60 -205 1 -238 33 -18 90 -13 111 8 48 48 52
166 6 215 -26 28 -83 35 -118 15z m78 -33 c13 -10 20 -30 23 -74 4 -55 2 -63
-22 -87 -21 -21 -29 -24 -46 -15 -39 21 -46 134 -10 170 24 24 30 24 55 6z"/>
<path d="M17784 4455 c-4 -9 -2 -21 4 -27 15 -15 44 -1 40 19 -4 23 -36 29
-44 8z"/>
<path d="M7822 4250 c-41 -38 -25 -71 45 -95 63 -22 70 -53 16 -69 -15 -5 -28
-1 -42 13 -24 24 -41 27 -41 8 0 -45 93 -64 130 -27 39 39 19 77 -53 100 -41
13 -57 34 -39 52 14 14 63 13 72 -2 4 -6 16 -10 26 -8 17 3 16 5 -6 26 -30 28
-79 29 -108 2z"/>
<path d="M8537 4263 c-4 -3 -7 -19 -7 -34 0 -27 -2 -28 -25 -17 -53 24 -101
-49 -75 -113 15 -34 53 -48 84 -29 14 9 21 10 24 1 2 -6 8 -11 13 -11 5 0 9
47 9 105 0 96 -5 117 -23 98z m-9 -120 c3 -35 -1 -44 -19 -54 -20 -10 -25 -9
-41 11 -33 40 -15 93 30 88 24 -3 27 -8 30 -45z"/>
<path d="M8987 4263 c-4 -3 -7 -19 -7 -34 0 -27 -2 -28 -25 -17 -53 24 -101
-49 -75 -113 15 -34 53 -48 84 -29 14 9 21 10 24 1 2 -6 8 -11 13 -11 5 0 9
47 9 105 0 96 -5 117 -23 98z m-9 -120 c3 -35 -1 -44 -19 -54 -20 -10 -25 -9
-41 11 -33 40 -15 93 30 88 24 -3 27 -8 30 -45z"/>
<path d="M8000 4239 c0 -7 -8 -18 -17 -25 -17 -12 -17 -13 0 -19 13 -6 17 -19
17 -59 0 -54 12 -76 42 -76 22 0 24 16 3 24 -11 4 -15 20 -15 56 0 38 4 50 15
50 8 0 15 7 15 15 0 8 -7 15 -15 15 -8 0 -15 7 -15 15 0 8 -7 15 -15 15 -8 0
-15 -5 -15 -11z"/>
<path d="M8114 4206 c-14 -11 -16 -18 -8 -26 8 -8 14 -9 18 -1 10 16 53 14 59
-3 7 -19 -1 -26 -30 -26 -37 0 -63 -18 -63 -43 0 -30 18 -47 50 -47 14 0 31 5
38 12 9 9 12 9 12 0 0 -7 7 -12 16 -12 25 0 15 127 -11 146 -24 18 -56 18 -81
0z m76 -85 c0 -14 -30 -41 -45 -41 -18 0 -28 17 -21 35 6 16 66 21 66 6z"/>
<path d="M8260 4140 c0 -63 3 -80 15 -80 10 0 15 16 17 63 3 62 3 62 33 62 30
0 30 0 33 -62 2 -47 7 -63 17 -63 25 0 20 115 -5 140 -23 23 -33 24 -60 10
-13 -7 -21 -7 -25 0 -16 27 -25 3 -25 -70z"/>
<path d="M8629 4201 l-24 -20 45 2 c56 2 64 -23 11 -34 -49 -10 -67 -32 -53
-64 13 -27 58 -35 80 -13 9 9 12 9 12 0 0 -7 7 -12 15 -12 12 0 15 14 15 64 0
56 -3 67 -22 80 -30 21 -51 20 -79 -3z m60 -107 c-16 -19 -53 -14 -57 8 -4 22
61 43 66 21 2 -8 -2 -21 -9 -29z"/>
<path d="M8777 4213 c-4 -3 -7 -39 -7 -80 0 -58 3 -73 15 -73 11 0 15 12 15
46 0 55 14 84 40 84 11 0 20 7 20 15 0 18 -14 19 -41 5 -13 -7 -19 -7 -19 0 0
11 -13 13 -23 3z"/>
<path d="M2530 3715 l0 -115 70 0 c56 0 70 3 70 15 0 12 -13 15 -55 15 l-55 0
0 100 c0 82 -3 100 -15 100 -12 0 -15 -19 -15 -115z"/>
<path d="M3212 3807 c-70 -75 -29 -207 64 -207 20 0 44 5 55 10 56 31 66 153
15 197 -38 32 -104 32 -134 0z m118 -34 c41 -53 8 -143 -52 -143 -42 0 -68 32
-68 83 0 58 22 87 65 87 25 0 39 -7 55 -27z"/>
<path d="M3630 3800 c0 -11 -7 -23 -15 -26 -8 -4 -15 -10 -15 -15 0 -5 7 -9
15 -9 12 0 15 -14 15 -63 0 -68 10 -87 47 -87 28 0 30 16 3 30 -16 9 -20 21
-20 65 0 48 2 55 20 55 11 0 20 5 20 10 0 6 -9 10 -20 10 -15 0 -20 7 -20 25
0 16 -6 25 -15 25 -8 0 -15 -9 -15 -20z"/>
<path d="M1906 3794 c-12 -11 -16 -36 -16 -94 0 -58 4 -83 16 -94 20 -21 64
-21 64 -1 0 9 -9 15 -25 15 -25 0 -25 1 -25 80 0 79 0 80 25 80 16 0 25 6 25
15 0 20 -44 20 -64 -1z"/>
<path d="M2002 3757 l-42 -43 44 -43 c29 -28 46 -39 51 -31 4 6 -3 22 -16 36
l-22 24 62 0 c46 0 62 3 59 13 -3 7 -27 13 -63 15 l-57 3 23 25 c15 16 19 28
13 34 -7 7 -24 -5 -52 -33z"/>
<path d="M2753 3772 c-54 -8 -74 -109 -30 -150 42 -40 107 -25 126 28 26 75
-21 134 -96 122z m57 -41 c30 -57 -9 -127 -55 -97 -11 8 -21 27 -23 46 -6 56
54 95 78 51z"/>
<path d="M2933 3770 c-27 -11 -43 -40 -43 -80 0 -63 44 -99 96 -80 24 9 25 8
22 -17 -2 -22 -9 -29 -31 -31 -16 -2 -35 2 -43 9 -10 8 -18 9 -25 2 -16 -16
19 -38 62 -38 63 0 73 19 77 135 4 96 3 100 -17 100 -12 0 -21 -5 -21 -11 0
-5 -10 -3 -22 5 -25 18 -25 18 -55 6z m58 -30 c14 -8 19 -21 19 -48 0 -61 -43
-84 -74 -40 -21 30 -20 54 4 78 23 23 25 23 51 10z"/>
<path d="M3430 3701 c0 -50 4 -74 16 -85 20 -21 53 -20 76 1 17 15 18 15 18 0
0 -10 7 -17 15 -17 12 0 15 16 15 85 0 69 -3 85 -15 85 -11 0 -15 -12 -15 -44
0 -69 -14 -98 -48 -94 -26 3 -27 5 -30 71 -2 51 -6 67 -17 67 -12 0 -15 -15
-15 -69z"/>
<path d="M9795 2420 c-4 -7 -3 -16 3 -22 14 -14 45 -2 40 15 -6 16 -34 21 -43
7z"/>
<path d="M7854 2405 c-12 -8 -29 -30 -38 -49 -55 -117 46 -236 158 -185 27 13
56 64 56 98 0 19 -6 21 -50 21 -38 0 -50 -4 -50 -15 0 -10 10 -15 30 -15 38 0
39 -21 4 -49 -30 -24 -43 -26 -77 -10 -45 21 -61 93 -32 148 24 48 82 56 113
16 22 -27 52 -34 52 -11 0 8 -14 26 -31 40 -35 30 -101 35 -135 11z"/>
<path d="M8510 2405 c0 -11 11 -15 40 -15 l40 0 0 -115 c0 -108 1 -115 20
-115 19 0 20 7 20 115 l0 115 40 0 c29 0 40 4 40 15 0 12 -18 15 -100 15 -82
0 -100 -3 -100 -15z"/>
<path d="M9070 2374 c0 -45 0 -45 -22 -30 -30 21 -50 20 -81 -4 -45 -35 -48
-119 -7 -160 24 -24 73 -26 94 -4 15 14 16 14 16 0 0 -9 8 -16 20 -16 19 0 20
7 20 130 0 123 -1 130 -20 130 -17 0 -20 -7 -20 -46z m-22 -60 c41 -28 21
-124 -26 -124 -51 0 -73 94 -30 124 12 9 25 16 28 16 3 0 16 -7 28 -16z"/>
<path d="M9890 2290 c0 -109 2 -130 15 -130 13 0 15 21 15 130 0 109 -2 130
-15 130 -13 0 -15 -21 -15 -130z"/>
<path d="M9970 2290 c0 -123 1 -130 20 -130 19 0 20 7 20 130 0 123 -1 130
-20 130 -19 0 -20 -7 -20 -130z"/>
<path d="M10190 2400 c-25 -25 -26 -65 -1 -87 19 -16 19 -17 -5 -35 -54 -43
-12 -118 66 -118 78 0 120 75 66 117 -23 19 -23 20 -5 31 28 18 26 76 -3 96
-32 23 -94 20 -118 -4z m100 -29 c14 -26 3 -50 -26 -57 -30 -8 -54 11 -54 41
0 29 8 35 41 35 18 0 32 -7 39 -19z m-9 -101 c21 -12 25 -50 7 -68 -7 -7 -24
-12 -38 -12 -32 0 -50 17 -50 47 0 36 42 53 81 33z"/>
<path d="M8300 2380 c0 -11 -7 -20 -15 -20 -8 0 -15 -7 -15 -15 0 -8 7 -15 15
-15 12 0 15 -14 15 -69 0 -77 13 -101 56 -101 29 0 31 15 4 30 -17 9 -20 21
-20 75 0 58 2 65 20 65 11 0 20 5 20 11 0 6 -9 13 -20 16 -11 3 -20 14 -20 24
0 12 -7 19 -20 19 -13 0 -20 -7 -20 -20z"/>
<path d="M9670 2380 c0 -11 -4 -20 -10 -20 -5 0 -10 -7 -10 -15 0 -8 5 -15 10
-15 6 0 10 -26 10 -57 0 -73 17 -107 53 -111 32 -4 38 23 7 31 -17 4 -20 14
-20 67 0 53 3 63 20 67 11 3 20 12 20 19 0 8 -9 14 -20 14 -13 0 -20 7 -20 20
0 13 -7 20 -20 20 -13 0 -20 -7 -20 -20z"/>
<path d="M8098 2330 c-28 -28 -30 -35 -26 -82 6 -63 32 -88 89 -88 27 0 46 7
61 22 21 21 21 23 4 26 -10 2 -23 -1 -29 -7 -15 -15 -60 -14 -75 1 -7 7 -12
20 -12 30 0 15 9 18 65 18 64 0 65 0 65 28 -1 31 -16 54 -47 70 -35 19 -63 14
-95 -18z m92 -20 c12 -12 18 -25 15 -30 -9 -15 -95 -12 -95 3 0 17 12 33 30
40 25 9 29 8 50 -13z"/>
<path d="M8758 2345 c-31 -18 -52 -73 -43 -115 15 -66 103 -93 150 -45 37 37
35 106 -4 146 -32 32 -62 36 -103 14z m66 -21 c8 -3 20 -21 26 -40 15 -45 -4
-88 -42 -92 -51 -6 -78 78 -38 118 21 21 29 23 54 14z"/>
<path d="M9205 2350 c-12 -4 -26 -14 -33 -23 -18 -21 15 -32 38 -12 20 18 42
19 58 3 22 -22 12 -36 -30 -43 -68 -11 -80 -21 -76 -63 2 -30 8 -38 31 -46 19
-7 37 -7 57 1 17 6 30 7 30 2 0 -5 9 -9 21 -9 20 0 21 4 17 81 -3 70 -6 83
-27 100 -25 20 -53 23 -86 9z m75 -119 c0 -26 -24 -43 -57 -39 -36 4 -43 35
-11 47 40 16 68 13 68 -8z"/>
<path d="M9350 2352 c0 -5 15 -51 34 -102 19 -50 32 -99 29 -107 -3 -8 -16
-19 -29 -24 -31 -11 -31 -29 -1 -29 40 0 55 22 97 134 45 121 48 139 23 134
-11 -2 -23 -25 -36 -68 -10 -36 -22 -69 -26 -73 -5 -4 -19 25 -32 65 -16 50
-30 74 -41 76 -10 2 -18 -1 -18 -6z"/>
<path d="M9800 2260 c0 -82 3 -100 15 -100 12 0 15 18 15 100 0 82 -3 100 -15
100 -12 0 -15 -18 -15 -100z"/>
<path d="M10400 2225 c0 -113 2 -135 15 -135 11 0 15 12 15 52 0 49 1 50 18
35 29 -26 77 -22 101 9 25 32 28 109 6 141 -20 29 -60 37 -96 19 -25 -12 -29
-12 -29 0 0 8 -7 14 -15 14 -13 0 -15 -22 -15 -135z m104 99 c8 -3 20 -21 26
-40 16 -48 -4 -89 -45 -89 -41 0 -61 41 -45 90 13 40 31 51 64 39z"/>
<path d="M10620 2260 c0 -93 1 -100 20 -100 18 0 20 7 20 75 0 65 3 76 21 85
36 20 49 -3 49 -86 0 -67 2 -74 20 -74 18 0 20 7 20 75 0 63 3 76 19 85 25 13
27 13 45 -6 12 -11 16 -35 16 -85 0 -55 3 -69 15 -69 13 0 15 14 13 87 -3 84
-4 88 -31 103 -25 14 -30 13 -58 -2 -27 -16 -32 -16 -45 -3 -20 19 -48 19 -68
0 -8 -8 -17 -15 -20 -15 -3 0 -6 7 -6 15 0 8 -7 15 -15 15 -12 0 -15 -18 -15
-100z"/>
<path d="M17290 2317 c0 -7 -13 -18 -30 -24 -16 -6 -35 -23 -41 -37 -16 -35 2
-74 41 -89 26 -10 30 -16 30 -49 0 -42 -13 -49 -32 -18 -16 26 -48 26 -48 1 0
-21 44 -61 66 -61 8 0 14 -7 14 -15 0 -8 7 -15 15 -15 8 0 15 7 15 15 0 8 6
15 14 15 7 0 25 10 40 21 22 17 27 28 24 58 -3 30 -9 39 -40 56 -32 17 -38 25
-38 53 0 33 16 44 26 17 7 -17 54 -21 54 -5 0 17 -47 60 -65 60 -8 0 -15 7
-15 15 0 8 -7 15 -15 15 -8 0 -15 -6 -15 -13z m0 -87 c0 -22 -4 -28 -15 -24
-15 6 -20 35 -8 47 14 15 23 6 23 -23z m64 -107 c7 -16 -10 -43 -25 -43 -5 0
-9 16 -9 35 0 26 4 33 14 29 8 -3 17 -13 20 -21z"/>
<path d="M17598 2282 c-18 -11 -28 -26 -28 -40 0 -22 1 -22 22 -8 12 9 26 16
30 16 5 0 8 -47 8 -105 0 -98 1 -105 20 -105 19 0 20 7 20 130 0 128 0 130
-22 129 -13 0 -35 -8 -50 -17z"/>
<path d="M17927 2289 c-61 -36 -60 -205 1 -238 33 -18 90 -13 111 8 48 48 52
166 6 215 -26 28 -83 35 -118 15z m78 -33 c13 -10 20 -30 23 -74 4 -55 2 -63
-22 -87 -21 -21 -29 -24 -46 -15 -39 21 -46 134 -10 170 24 24 30 24 55 6z"/>
<path d="M18167 2289 c-61 -36 -60 -205 1 -238 33 -18 90 -13 111 8 48 48 52
166 6 215 -26 28 -83 35 -118 15z m78 -33 c13 -10 20 -30 23 -74 4 -55 2 -63
-22 -87 -21 -21 -29 -24 -46 -15 -39 21 -46 134 -10 170 24 24 30 24 55 6z"/>
<path d="M17784 2075 c-4 -9 -2 -21 4 -27 15 -15 44 -1 40 19 -4 23 -36 29
-44 8z"/>
<path d="M7800 1786 c0 -86 3 -106 15 -106 11 0 15 18 17 78 l3 77 54 -77 c30
-43 61 -78 68 -78 10 0 13 25 13 105 0 85 -3 105 -15 105 -11 0 -15 -17 -17
-76 l-3 -76 -50 73 c-27 41 -58 75 -67 77 -16 3 -18 -7 -18 -102z"/>
<path d="M9100 1786 c0 -88 3 -106 15 -106 10 0 15 11 15 35 0 44 9 44 39 0
13 -20 32 -35 43 -35 18 0 16 4 -11 39 -37 47 -38 51 -6 81 14 13 25 27 25 32
0 18 -28 6 -56 -23 l-29 -31 -5 53 c-3 29 -11 54 -17 57 -10 3 -13 -22 -13
-102z"/>
<path d="M8350 1855 c0 -8 -4 -15 -10 -15 -5 0 -10 -7 -10 -15 0 -8 5 -15 10
-15 6 0 10 -21 10 -46 0 -55 14 -84 40 -84 23 0 27 18 5 26 -11 4 -15 21 -15
55 0 37 4 49 15 49 8 0 15 7 15 15 0 8 -7 15 -15 15 -8 0 -15 7 -15 15 0 8 -7
15 -15 15 -8 0 -15 -7 -15 -15z"/>
<path d="M8035 1815 c-31 -30 -33 -82 -5 -113 27 -28 80 -29 105 -2 18 19 17
20 -1 20 -11 0 -25 -5 -32 -12 -15 -15 -62 5 -62 27 0 12 12 15 55 15 49 0 55
2 55 20 0 27 -43 70 -70 70 -11 0 -32 -11 -45 -25z m75 -9 c0 -2 3 -11 6 -20
5 -13 -2 -16 -35 -16 -42 0 -50 7 -29 28 11 11 58 17 58 8z"/>
<path d="M8180 1833 c0 -5 9 -23 21 -42 l20 -33 -26 -39 c-23 -35 -24 -39 -7
-39 10 0 24 11 30 25 6 14 15 25 20 25 5 0 15 -11 22 -25 7 -14 19 -25 27 -25
18 0 17 7 -8 46 l-21 34 22 36 c12 19 20 38 16 41 -8 8 -34 -15 -41 -38 -9
-26 -17 -24 -37 11 -16 27 -38 41 -38 23z"/>
<path d="M8520 1823 c0 -10 8 -45 18 -78 23 -77 44 -83 62 -18 19 69 25 70 40
8 19 -78 40 -74 64 13 11 37 21 73 24 80 2 6 -3 12 -11 12 -9 0 -19 -18 -27
-47 -18 -65 -26 -72 -35 -26 -9 48 -23 75 -37 71 -6 -2 -18 -28 -28 -58 l-16
-55 -17 58 c-17 54 -37 77 -37 40z"/>
<path d="M8775 1815 c-31 -30 -33 -82 -5 -113 27 -28 80 -29 105 -2 18 19 17
20 -1 20 -11 0 -25 -5 -32 -12 -15 -15 -62 5 -62 27 0 12 12 15 55 15 49 0 55
2 55 20 0 27 -43 70 -70 70 -11 0 -32 -11 -45 -25z m75 -9 c0 -2 3 -11 6 -20
5 -13 -2 -16 -35 -16 -42 0 -50 7 -29 28 11 11 58 17 58 8z"/>
<path d="M8945 1815 c-31 -30 -33 -82 -5 -113 27 -28 80 -29 105 -2 18 19 17
20 -1 20 -11 0 -25 -5 -32 -12 -15 -15 -62 5 -62 27 0 12 12 15 55 15 49 0 55
2 55 20 0 27 -43 70 -70 70 -11 0 -32 -11 -45 -25z m75 -9 c0 -2 3 -11 6 -20
5 -13 -2 -16 -35 -16 -42 0 -50 7 -29 28 11 11 58 17 58 8z"/>
</g>
</svg>
