<?xml version="1.0" standalone="no"?>
<!DOCTYPE svg PUBLIC "-//W3C//DTD SVG 20010904//EN"
 "http://www.w3.org/TR/2001/REC-SVG-20010904/DTD/svg10.dtd">
<svg version="1.0" xmlns="http://www.w3.org/2000/svg"
 width="2880.000000pt" height="1800.000000pt" viewBox="0 0 2880.000000 1800.000000"
 preserveAspectRatio="xMidYMid meet">

<g transform="translate(0.000000,1800.000000) scale(0.100000,-0.100000)"
fill="#000000" stroke="none">
<path d="M26460 16838 c-25 -13 -55 -38 -67 -57 -61 -92 -31 -209 67 -258 53
-28 101 -29 155 -4 l40 19 42 -41 c34 -32 46 -38 55 -29 9 9 3 21 -29 55 l-41
42 19 40 c23 51 24 99 0 150 -22 48 -44 69 -94 90 -51 21 -95 19 -147 -7z
m148 -38 c42 -26 72 -76 72 -120 0 -71 -69 -140 -140 -140 -71 0 -140 69 -140
140 0 71 69 140 140 140 19 0 50 -9 68 -20z"/>
<path d="M3293 13519 c-74 -29 -144 -95 -179 -171 -27 -59 -29 -71 -29 -193 0
-121 2 -134 27 -185 15 -30 41 -72 58 -92 37 -45 136 -94 206 -103 60 -8 164
9 214 35 70 35 136 122 155 203 l7 27 -78 0 -79 -1 -20 -42 c-42 -88 -165
-114 -253 -53 -124 85 -114 374 15 439 43 22 99 29 142 17 44 -12 111 -78 111
-110 0 -18 7 -20 81 -20 l81 0 -7 33 c-22 99 -103 190 -195 220 -72 24 -190
22 -257 -4z"/>
<path d="M2161 13168 c-68 -200 -126 -369 -129 -375 -3 -10 17 -13 80 -13 l84
0 24 83 25 82 142 3 142 3 27 -86 28 -85 83 0 c46 0 83 1 83 3 -1 1 -58 169
-129 372 l-128 370 -104 3 -104 2 -124 -362z m277 64 c23 -70 42 -135 42 -145
0 -15 -12 -17 -89 -17 -50 0 -92 3 -94 8 -5 10 82 282 91 282 4 0 27 -58 50
-128z"/>
<path d="M6110 13155 l0 -375 75 0 75 0 0 375 0 375 -75 0 -75 0 0 -375z"/>
<path d="M7050 13410 l0 -70 -35 0 -35 0 0 -55 0 -55 35 0 35 0 0 -152 c0
-208 14 -254 89 -285 37 -16 159 -19 173 -5 5 5 4 30 -3 60 -10 50 -12 52 -43
52 -53 0 -56 9 -56 177 l0 153 50 0 50 0 0 55 0 55 -50 0 -50 0 0 70 0 70 -80
0 -80 0 0 -70z"/>
<path d="M4017 13336 c-126 -45 -195 -183 -168 -335 20 -112 83 -186 185 -216
171 -51 328 46 356 221 10 63 -1 147 -27 201 -25 53 -86 109 -140 127 -56 19
-154 20 -206 2z m176 -134 c93 -87 43 -312 -70 -312 -76 0 -122 67 -123 176 0
143 105 217 193 136z"/>
<path d="M4740 13332 c-19 -9 -44 -31 -55 -49 -11 -18 -23 -32 -27 -33 -5 0
-8 20 -8 45 l0 45 -70 0 -70 0 0 -280 0 -280 75 0 75 0 0 185 c0 205 6 233 58
254 37 16 77 5 102 -26 18 -24 20 -41 20 -219 l0 -194 75 0 75 0 0 190 c0 212
5 230 64 250 40 13 77 1 100 -32 13 -19 16 -55 16 -215 l0 -193 76 0 75 0 -3
234 c-3 219 -4 236 -24 262 -36 49 -70 67 -132 72 -70 5 -127 -19 -162 -69
l-22 -31 -30 36 c-16 20 -43 43 -58 51 -39 20 -107 19 -150 -3z"/>
<path d="M5690 13332 c-19 -10 -44 -33 -55 -50 -27 -43 -35 -40 -35 13 l0 45
-75 0 -75 0 0 -385 0 -385 80 0 80 0 0 150 0 150 35 -39 c74 -82 204 -75 283
14 110 125 90 382 -36 470 -56 38 -148 46 -202 17z m94 -123 c41 -32 57 -73
57 -144 0 -107 -40 -166 -115 -168 -66 -2 -112 51 -123 141 -16 139 92 241
181 171z"/>
<path d="M6560 13341 c-74 -23 -140 -85 -171 -161 -20 -50 -17 -204 5 -253 21
-47 87 -114 130 -132 81 -34 213 -26 284 17 35 22 76 71 86 104 6 20 2 22 -59
29 -63 6 -66 6 -95 -23 -67 -68 -195 -33 -215 59 -4 15 -4 33 0 39 4 6 77 10
196 10 215 0 196 -10 178 99 -5 35 -16 76 -24 92 -24 46 -83 97 -133 113 -47
17 -139 20 -182 7z m140 -116 c35 -18 60 -52 60 -82 0 -23 -2 -23 -120 -23
-77 0 -120 4 -120 10 0 25 33 72 63 90 38 24 78 25 117 5z"/>
<path d="M7580 13341 c-74 -23 -140 -85 -171 -161 -20 -50 -17 -204 5 -253 21
-47 87 -114 130 -132 81 -34 213 -26 284 17 35 22 76 71 86 104 6 20 2 22 -59
29 -63 6 -66 6 -95 -23 -67 -68 -195 -33 -215 59 -4 15 -4 33 0 39 4 6 77 10
196 10 215 0 196 -10 178 99 -5 35 -16 76 -24 92 -24 46 -83 97 -133 113 -47
17 -139 20 -182 7z m140 -116 c35 -18 60 -52 60 -82 0 -23 -2 -23 -120 -23
-77 0 -120 4 -120 10 0 25 33 72 63 90 38 24 78 25 117 5z"/>
<path d="M4000 11895 l0 -375 75 0 75 0 0 89 c0 79 3 93 23 116 l22 26 79
-115 79 -116 89 0 89 0 -110 161 -110 161 77 90 c42 49 87 103 100 119 l23 29
-85 0 -85 0 -88 -104 c-48 -58 -91 -105 -95 -105 -5 -1 -8 89 -8 199 l0 200
-75 0 -75 0 0 -375z"/>
<path d="M6510 11895 l0 -375 80 0 80 0 0 155 0 154 153 3 152 3 3 63 3 62
-156 0 -155 0 0 95 0 95 170 0 170 0 0 60 0 60 -250 0 -250 0 0 -375z"/>
<path d="M5900 12150 l0 -70 -35 0 -35 0 0 -55 0 -55 35 0 35 0 0 -152 c0
-208 14 -254 89 -285 37 -16 159 -19 173 -5 5 5 4 30 -3 60 -10 50 -12 52 -43
52 -53 0 -56 9 -56 177 l0 153 50 0 50 0 0 55 0 55 -50 0 -50 0 0 70 0 70 -80
0 -80 0 0 -70z"/>
<path d="M3087 12076 c-126 -45 -195 -183 -168 -335 20 -112 83 -186 185 -216
171 -51 328 46 356 221 10 63 -1 147 -27 201 -25 53 -86 109 -140 127 -56 19
-154 20 -206 2z m176 -134 c93 -87 43 -312 -70 -312 -76 0 -122 67 -123 176 0
143 105 217 193 136z"/>
<path d="M3793 12070 c-18 -10 -40 -34 -50 -52 l-18 -33 -3 48 -3 47 -75 0
-74 0 0 -280 0 -280 80 0 80 0 0 185 0 185 29 32 c27 30 34 33 90 33 l61 0 0
68 0 67 -42 0 c-25 0 -57 -8 -75 -20z"/>
<path d="M4740 12079 c-54 -17 -106 -60 -141 -118 -28 -46 -33 -64 -37 -136
-9 -176 77 -290 234 -311 168 -21 298 87 311 259 10 131 -42 238 -141 289 -47
25 -170 34 -226 17z m158 -125 c48 -31 70 -154 43 -237 -15 -46 -63 -87 -101
-87 -78 0 -124 65 -124 175 0 84 22 131 74 158 37 19 69 16 108 -9z"/>
<path d="M7325 12068 c-15 -12 -36 -35 -46 -52 l-19 -31 0 48 0 47 -75 0 -75
0 0 -280 0 -280 75 0 75 0 0 176 c0 147 3 181 17 204 24 42 70 63 126 59 l47
-4 0 67 0 68 -49 0 c-34 0 -56 -6 -76 -22z"/>
<path d="M7653 12074 c-23 -8 -59 -32 -80 -53 -60 -57 -77 -102 -81 -209 -4
-84 -1 -98 22 -147 53 -108 156 -164 278 -151 135 14 228 108 244 246 14 120
-38 238 -129 294 -41 25 -60 30 -130 33 -56 2 -95 -2 -124 -13z m153 -109 c87
-36 103 -242 23 -309 -43 -36 -97 -35 -137 2 -86 81 -58 290 43 315 33 8 34 8
71 -8z"/>
<path d="M8380 12072 c-19 -9 -44 -31 -55 -49 -11 -18 -23 -32 -27 -33 -5 0
-8 20 -8 45 l0 45 -70 0 -70 0 0 -280 0 -280 75 0 75 0 0 185 c0 205 6 233 58
254 37 16 77 5 102 -26 18 -24 20 -41 20 -219 l0 -194 75 0 75 0 0 190 c0 212
5 230 64 250 40 13 77 1 100 -32 13 -19 16 -55 16 -215 l0 -193 76 0 75 0 -3
234 c-3 219 -4 236 -24 262 -36 49 -70 67 -132 72 -70 5 -127 -19 -162 -69
l-22 -31 -30 36 c-16 20 -43 43 -58 51 -39 20 -107 19 -150 -3z"/>
<path d="M2030 12068 c1 -7 33 -132 73 -278 l72 -265 82 -3 c71 -2 82 -1 87
15 3 10 24 88 46 173 23 85 45 159 49 163 5 4 30 -73 57 -173 l49 -180 81 0
81 0 43 158 c24 86 58 212 76 280 l33 122 -77 0 -77 0 -39 -174 c-22 -96 -42
-180 -47 -187 -8 -14 -14 4 -54 176 -14 61 -30 127 -36 148 l-10 37 -77 0 -78
0 -44 -185 c-24 -102 -46 -185 -50 -185 -4 0 -13 26 -19 58 -7 31 -27 114 -43
185 l-30 127 -74 0 c-53 0 -74 -4 -74 -12z"/>
<path d="M5220 11873 c0 -226 7 -260 61 -310 75 -68 232 -53 277 28 24 41 32
36 32 -21 l0 -50 70 0 70 0 0 280 0 280 -75 0 -75 0 0 -177 c0 -158 -2 -182
-19 -209 -39 -63 -127 -65 -168 -4 -22 31 -23 43 -23 211 l0 179 -75 0 -75 0
0 -207z"/>
<path d="M2070 10635 l0 -375 75 0 75 0 0 179 c0 99 4 191 10 205 27 73 157
80 189 9 7 -15 11 -95 11 -208 l0 -185 81 0 81 0 -4 213 c-4 226 -8 247 -62
305 -70 77 -239 64 -286 -22 -7 -14 -17 -26 -22 -26 -4 0 -8 63 -8 140 l0 140
-70 0 -70 0 0 -375z"/>
<path d="M4320 10877 c0 -74 -3 -136 -6 -140 -4 -3 -16 8 -28 25 -34 50 -81
70 -153 66 -85 -5 -137 -41 -178 -123 -27 -53 -30 -70 -30 -150 0 -49 6 -111
14 -138 45 -156 236 -217 336 -106 19 21 37 39 40 39 3 0 5 -20 5 -45 l0 -45
75 0 75 0 0 375 0 375 -75 0 -75 0 0 -133z m-52 -195 c37 -35 56 -100 48 -165
-7 -64 -33 -108 -77 -130 -32 -15 -41 -16 -74 -5 -58 20 -79 55 -83 144 -5 86
7 123 50 159 42 35 96 34 136 -3z"/>
<path d="M4878 10893 l-3 -68 -37 -3 -38 -3 0 -55 0 -54 40 0 40 0 0 -171 c0
-156 2 -175 21 -209 12 -21 36 -45 56 -54 35 -17 134 -23 171 -12 18 6 19 10
8 59 -11 50 -13 52 -46 55 -56 5 -60 19 -60 184 l0 148 55 0 55 0 0 54 0 55
-52 3 -53 3 -3 68 -3 67 -74 0 -74 0 -3 -67z"/>
<path d="M6158 10893 l-3 -68 -37 -3 -38 -3 0 -54 0 -54 38 -3 37 -3 5 -180
c6 -202 11 -219 74 -249 36 -17 155 -24 176 -11 8 5 9 21 5 44 -12 67 -14 71
-49 71 -53 0 -56 9 -56 177 l0 153 50 0 50 0 0 54 0 55 -47 3 -48 3 -3 68 -3
67 -74 0 -74 0 -3 -67z"/>
<path d="M2866 10815 c-125 -44 -198 -196 -166 -348 16 -78 62 -143 130 -181
49 -27 64 -31 135 -31 93 0 143 15 191 58 33 28 64 75 64 95 0 5 -30 13 -66
17 -64 7 -68 6 -88 -20 -40 -49 -132 -51 -183 -3 -23 22 -47 84 -37 100 3 4
91 8 196 8 l191 0 -6 67 c-12 120 -70 205 -164 239 -49 17 -147 17 -197 -1z
m180 -127 c13 -13 28 -38 33 -56 l10 -32 -124 0 -124 0 9 30 c12 41 18 49 54
71 42 27 109 21 142 -13z"/>
<path d="M3468 10815 c-20 -7 -48 -21 -62 -31 -28 -18 -82 -101 -73 -110 3 -3
33 -8 66 -11 57 -5 62 -4 96 26 27 24 45 31 76 31 71 0 117 -72 67 -104 -13
-8 -64 -20 -115 -26 -145 -20 -213 -73 -213 -167 0 -92 43 -143 137 -164 74
-17 135 -1 186 49 l37 36 0 -42 0 -42 70 0 70 0 0 210 c0 230 -5 256 -56 304
-55 51 -201 72 -286 41z m192 -341 c0 -39 -5 -51 -34 -80 -29 -29 -41 -34 -79
-34 -46 0 -84 22 -88 50 -6 54 16 73 112 94 93 20 89 22 89 -30z"/>
<path d="M5400 10819 c-54 -17 -106 -60 -141 -118 -28 -46 -33 -64 -37 -136
-9 -176 77 -290 234 -311 168 -21 298 87 311 259 10 131 -42 238 -141 289 -47
25 -170 34 -226 17z m158 -125 c48 -31 70 -154 43 -237 -15 -46 -63 -87 -101
-87 -78 0 -124 65 -124 175 0 84 22 131 74 158 37 19 69 16 108 -9z"/>
<path d="M6663 10814 c-23 -8 -59 -32 -80 -53 -60 -57 -77 -102 -81 -209 -4
-84 -1 -98 22 -147 53 -108 156 -164 278 -151 135 14 228 108 244 246 14 120
-38 238 -129 294 -41 25 -60 30 -130 33 -56 2 -95 -2 -124 -13z m153 -109 c87
-36 103 -242 23 -309 -43 -36 -97 -35 -137 2 -86 81 -58 290 43 315 33 8 34 8
71 -8z"/>
<path d="M7306 10815 c-125 -44 -198 -196 -166 -348 16 -78 62 -143 130 -181
49 -27 64 -31 135 -31 93 0 143 15 191 58 33 28 64 75 64 95 0 5 -30 13 -66
17 -64 7 -68 6 -88 -20 -40 -49 -132 -51 -183 -3 -23 22 -47 84 -37 100 3 4
91 8 196 8 l191 0 -6 67 c-12 120 -70 205 -164 239 -49 17 -147 17 -197 -1z
m180 -127 c13 -13 28 -38 33 -56 l10 -32 -124 0 -124 0 9 30 c12 41 18 49 54
71 42 27 109 21 142 -13z"/>
<path d="M7898 10816 c-88 -32 -128 -82 -128 -157 0 -53 29 -103 75 -130 17
-10 72 -27 124 -38 96 -21 131 -40 131 -72 0 -27 -48 -59 -89 -59 -41 0 -101
32 -101 55 0 17 -35 19 -113 9 l-46 -7 15 -36 c42 -101 163 -149 309 -121 111
21 178 84 179 169 2 93 -38 128 -180 161 -119 28 -122 29 -139 46 -39 39 4 87
78 86 34 -1 47 -7 69 -31 21 -23 36 -31 62 -31 58 0 96 11 96 29 0 30 -50 91
-93 113 -53 27 -193 36 -249 14z"/>
<path d="M22340 9267 c-25 -5 -52 -10 -60 -11 -44 -7 -110 -30 -110 -37 0 -5
-11 -9 -25 -9 -13 0 -77 -18 -142 -41 -65 -22 -136 -45 -158 -49 -35 -8 -206
-67 -260 -90 -11 -5 -38 -14 -60 -21 -70 -21 -142 -58 -150 -76 -14 -32 -18
-400 -6 -482 45 -288 178 -457 388 -491 112 -19 113 -18 183 66 99 119 140
135 235 90 75 -35 108 -81 130 -181 9 -44 31 -72 77 -101 106 -67 262 -101
381 -83 145 21 335 87 511 175 44 23 72 32 78 26 15 -15 -26 -162 -62 -231
-43 -81 -132 -167 -231 -225 -115 -66 -249 -155 -249 -164 -1 -14 -18 -87 -33
-142 -8 -30 -20 -81 -27 -112 -10 -53 -14 -58 -38 -58 -15 0 -52 9 -82 20 -81
30 -116 29 -178 -8 -29 -18 -59 -32 -66 -32 -8 0 -19 -7 -26 -15 -11 -13 -40
-30 -245 -141 l-81 -43 -29 18 c-63 38 -150 155 -186 247 -14 38 -37 93 -52
123 -7 15 -30 31 -57 41 -54 20 -60 22 -175 67 -152 59 -224 92 -310 143 -60
36 -95 41 -95 14 0 -27 -20 -14 -41 29 -12 23 -35 53 -52 67 -17 14 -38 32
-47 41 -15 14 -18 13 -38 -18 -28 -42 -28 -51 1 -46 18 4 28 -6 57 -53 19 -31
53 -77 75 -102 l40 -45 -1 -91 c-1 -50 -6 -118 -12 -151 -6 -33 -14 -99 -18
-147 l-6 -87 38 -39 c22 -21 64 -55 94 -74 60 -37 213 -106 270 -120 19 -5 53
-14 75 -19 64 -17 206 -39 249 -39 39 0 135 -31 229 -74 113 -51 188 -71 372
-96 44 -6 98 -15 120 -20 22 -5 69 -14 105 -20 36 -7 79 -16 95 -20 17 -4 65
-16 108 -25 42 -10 77 -23 77 -29 0 -6 -13 -27 -30 -46 -41 -49 -39 -62 8 -55
20 4 48 10 62 15 14 4 50 13 80 20 90 21 200 83 279 158 75 72 73 68 107 207
22 88 24 373 3 445 -16 58 -17 39 20 345 6 50 20 167 31 260 20 170 30 248 51
382 16 108 -8 290 -61 451 -58 179 -145 357 -221 452 -57 71 -163 168 -219
200 -118 67 -232 115 -255 106 -8 -3 -15 -12 -15 -21 0 -9 -9 -15 -21 -15 -17
0 -20 5 -17 23 4 21 -1 26 -49 40 -67 21 -92 21 -114 1 -20 -18 -41 -10 -37
14 3 15 -7 17 -67 17 -39 0 -91 -3 -115 -8z m340 -76 c0 -11 -4 -22 -8 -25
-14 -9 -35 12 -29 28 9 23 37 20 37 -3z m-180 -1 c0 -5 -7 -10 -16 -10 -8 0
-12 5 -9 10 3 6 10 10 16 10 5 0 9 -4 9 -10z m-1520 -1640 c0 -5 -4 -10 -10
-10 -5 0 -10 5 -10 10 0 6 5 10 10 10 6 0 10 -4 10 -10z"/>
<path d="M2000 9131 c0 -6 24 -11 53 -13 l52 -3 3 -127 c1 -71 7 -128 12 -128
5 0 11 57 12 128 l3 127 53 3 c28 2 52 7 52 13 0 5 -51 9 -120 9 -69 0 -120
-4 -120 -9z"/>
<path d="M3015 9130 c-8 -13 4 -32 16 -25 12 8 12 35 0 35 -6 0 -13 -4 -16
-10z"/>
<path d="M4694 9127 c-2 -7 -3 -69 -2 -137 2 -88 7 -125 16 -128 6 -2 12 4 12
13 0 15 2 15 22 1 33 -23 75 -20 103 9 34 33 35 103 3 140 -28 32 -79 37 -108
10 -20 -18 -20 -17 -20 43 0 57 -13 82 -26 49z m130 -113 c20 -20 21 -83 0
-112 -33 -47 -104 -12 -104 51 0 45 25 77 60 77 16 0 36 -7 44 -16z"/>
<path d="M5290 9079 c0 -60 -1 -61 -18 -46 -27 25 -87 22 -112 -5 -30 -33 -28
-111 5 -143 28 -29 70 -32 103 -9 20 14 22 14 22 -1 0 -9 6 -15 13 -12 9 3 12
39 12 137 0 98 -3 134 -12 138 -10 3 -13 -13 -13 -59z m-16 -71 c47 -67 -34
-171 -86 -110 -31 35 -28 103 5 124 24 15 66 8 81 -14z"/>
<path d="M6270 9079 c0 -60 -1 -61 -18 -46 -27 25 -87 22 -112 -5 -30 -33 -28
-111 5 -143 28 -29 70 -32 103 -9 20 14 22 14 22 -1 0 -9 6 -15 13 -12 9 3 12
39 12 137 0 98 -3 134 -12 138 -10 3 -13 -13 -13 -59z m-16 -71 c47 -67 -34
-171 -86 -110 -31 35 -28 103 5 124 24 15 66 8 81 -14z"/>
<path d="M6702 9126 c1 -10 8 -17 13 -17 15 1 12 24 -3 29 -9 3 -13 -2 -10
-12z"/>
<path d="M7315 9130 c-8 -13 4 -32 16 -25 12 8 12 35 0 35 -6 0 -13 -4 -16
-10z"/>
<path d="M8610 9017 c0 -136 7 -157 56 -157 31 0 31 16 -1 24 -24 6 -24 8 -27
128 -2 86 -7 123 -15 126 -10 3 -13 -26 -13 -121z"/>
<path d="M3340 9080 c0 -23 -4 -30 -20 -30 -11 0 -20 -4 -20 -10 0 -5 8 -10
19 -10 16 0 19 -10 23 -71 3 -55 8 -74 23 -85 22 -16 75 -19 75 -4 0 6 -10 10
-23 10 -37 0 -47 19 -47 87 l0 63 30 0 c17 0 30 5 30 10 0 6 -13 10 -30 10
-27 0 -30 3 -30 30 0 20 -5 30 -15 30 -10 0 -15 -10 -15 -30z"/>
<path d="M7417 9103 c-4 -3 -7 -17 -7 -30 0 -14 -6 -23 -15 -23 -8 0 -15 -4
-15 -10 0 -5 7 -10 15 -10 11 0 15 -12 15 -49 0 -53 14 -101 33 -113 18 -11
67 -10 67 2 0 6 -9 10 -19 10 -36 0 -51 27 -51 91 0 59 0 59 29 59 17 0 33 5
36 10 4 6 -8 10 -29 10 -33 0 -36 2 -36 30 0 29 -9 38 -23 23z"/>
<path d="M8477 9103 c-4 -3 -7 -17 -7 -30 0 -14 -6 -23 -15 -23 -8 0 -15 -4
-15 -10 0 -5 7 -10 15 -10 11 0 15 -12 15 -49 0 -53 14 -101 33 -113 18 -11
67 -10 67 2 0 6 -9 10 -19 10 -36 0 -51 27 -51 91 0 59 0 59 29 59 17 0 33 5
36 10 4 6 -8 10 -29 10 -33 0 -36 2 -36 30 0 29 -9 38 -23 23z"/>
<path d="M2531 9044 c-17 -7 -31 -9 -31 -4 0 6 -7 10 -15 10 -12 0 -15 -17
-15 -96 0 -72 3 -95 13 -92 7 3 14 32 17 77 6 79 16 93 65 89 34 -3 42 -23 44
-110 1 -32 6 -58 11 -58 15 0 13 153 -2 172 -19 23 -51 27 -87 12z"/>
<path d="M2755 9052 c-29 -6 -62 -40 -68 -69 -7 -37 10 -90 36 -108 27 -19 87
-19 113 -1 24 18 13 31 -14 17 -33 -17 -67 -13 -90 12 -36 38 -28 46 51 49 70
3 72 4 69 28 -8 55 -44 82 -97 72z m63 -40 c25 -32 15 -42 -48 -42 -64 0 -66
1 -49 31 20 38 70 43 97 11z"/>
<path d="M3523 9052 c-51 -8 -80 -91 -51 -145 39 -75 148 -56 164 29 6 34 -9
88 -28 100 -17 11 -63 20 -85 16z m71 -44 c34 -49 7 -128 -44 -128 -51 0 -83
96 -44 134 23 24 70 20 88 -6z"/>
<path d="M4053 9052 c-61 -10 -86 -120 -38 -167 47 -48 135 -21 148 44 7 32
-8 97 -24 106 -18 12 -64 21 -86 17z m71 -44 c47 -67 -34 -171 -86 -110 -31
35 -28 103 5 124 24 15 66 8 81 -14z"/>
<path d="M4520 9053 c-8 -3 -23 -12 -32 -21 -16 -14 -18 -13 -18 1 0 10 -4 17
-10 17 -6 0 -10 -38 -10 -95 0 -57 4 -95 10 -95 6 0 10 24 10 54 0 73 12 101
50 115 17 6 29 15 25 21 -3 5 -7 10 -8 9 -1 0 -9 -3 -17 -6z"/>
<path d="M4969 9046 c-61 -20 -75 -124 -21 -166 62 -49 142 -8 142 73 0 78
-50 116 -121 93z m68 -24 c33 -21 36 -89 5 -124 -34 -40 -102 1 -102 61 0 55
55 90 97 63z"/>
<path d="M5733 9048 c-53 -14 -48 -28 8 -21 53 6 69 -2 69 -39 0 -14 -8 -18
-37 -18 -78 0 -116 -47 -74 -89 25 -25 68 -27 93 -4 17 15 18 15 18 -1 0 -10
6 -16 13 -14 17 6 21 126 5 157 -16 30 -52 41 -95 29z m77 -116 c0 -45 -70
-68 -93 -30 -17 26 9 48 54 48 31 0 39 -4 39 -18z"/>
<path d="M5969 9048 c-13 -5 -27 -14 -31 -21 -5 -8 -8 -6 -8 6 0 9 -7 17 -15
17 -13 0 -15 -15 -13 -92 2 -62 7 -93 16 -96 9 -3 12 15 12 66 0 77 15 102 63
102 36 0 47 -25 47 -105 0 -49 3 -66 13 -62 16 5 16 149 -1 170 -16 19 -53 26
-83 15z"/>
<path d="M6503 9045 c-57 -24 -66 -123 -16 -161 24 -18 74 -17 101 2 21 14 22
14 22 -8 0 -57 -58 -86 -112 -57 -27 14 -38 1 -14 -17 30 -21 102 -18 126 6
18 18 20 33 20 130 0 67 -4 110 -10 110 -5 0 -10 -7 -10 -17 0 -14 -2 -15 -17
-1 -27 23 -57 27 -90 13z m85 -27 c33 -42 19 -113 -25 -124 -39 -10 -71 10
-79 51 -9 50 15 85 60 85 18 0 38 -6 44 -12z"/>
<path d="M7055 9052 c-29 -6 -62 -40 -68 -69 -7 -37 10 -90 36 -108 27 -19 87
-19 113 -1 24 18 13 31 -14 17 -33 -17 -67 -13 -90 12 -36 38 -28 46 51 49 70
3 72 4 69 28 -8 55 -44 82 -97 72z m63 -40 c25 -32 15 -42 -48 -42 -64 0 -66
1 -49 31 20 38 70 43 97 11z"/>
<path d="M7703 9052 c-51 -8 -84 -109 -50 -153 28 -36 88 -50 128 -29 33 18
21 28 -21 16 -46 -12 -68 -3 -87 35 l-12 24 72 5 72 5 -2 29 c-4 50 -43 77
-100 68z m55 -28 c12 -8 22 -24 22 -35 0 -17 -7 -19 -60 -19 -57 0 -59 1 -51
23 7 18 43 46 61 47 3 0 16 -7 28 -16z"/>
<path d="M8135 9054 c-5 -1 -22 -5 -37 -8 -46 -10 -32 -26 17 -19 49 6 75 -7
75 -37 0 -14 -11 -18 -50 -22 -57 -6 -80 -21 -80 -54 0 -26 34 -54 65 -54 11
0 31 7 43 16 20 14 22 14 22 0 0 -9 5 -16 10 -16 15 0 13 165 -2 177 -15 12
-49 21 -63 17z m55 -117 c0 -7 -7 -23 -16 -35 -28 -40 -98 -13 -81 32 8 20 97
24 97 3z"/>
<path d="M2247 9043 c-20 -20 0 -159 25 -175 21 -13 62 -9 86 8 20 14 22 14
22 0 0 -9 5 -16 10 -16 6 0 10 38 10 95 0 57 -4 95 -10 95 -5 0 -10 -25 -10
-56 0 -75 -21 -113 -62 -114 -34 0 -48 28 -48 101 0 64 -6 80 -23 62z"/>
<path d="M3012 8958 c2 -62 7 -93 16 -96 9 -3 12 20 12 92 0 80 -3 96 -15 96
-13 0 -15 -15 -13 -92z"/>
<path d="M3110 8955 c0 -57 4 -95 10 -95 6 0 10 26 10 58 0 72 17 106 53 110
47 6 57 -12 57 -95 0 -55 3 -74 13 -71 17 6 21 126 4 158 -16 32 -79 40 -108
14 -17 -16 -19 -16 -19 -1 0 10 -4 17 -10 17 -6 0 -10 -38 -10 -95z"/>
<path d="M3780 9040 c0 -6 16 -49 36 -95 29 -67 34 -87 25 -103 -13 -25 -14
-52 -2 -52 9 0 111 227 111 248 0 31 -20 6 -46 -55 -15 -38 -31 -72 -34 -76
-4 -5 -20 24 -36 64 -27 65 -54 100 -54 69z"/>
<path d="M4220 8977 c0 -89 16 -117 64 -117 19 0 39 7 47 16 11 14 13 14 21 0
20 -35 28 -12 28 79 0 77 -3 95 -15 95 -11 0 -15 -17 -17 -72 -3 -67 -5 -73
-30 -88 -47 -26 -62 -6 -66 84 -2 59 -6 76 -17 76 -12 0 -15 -16 -15 -73z"/>
<path d="M5363 9038 c2 -7 19 -48 38 -91 30 -72 31 -81 20 -114 -13 -35 -10
-50 7 -39 13 8 115 246 108 253 -11 11 -26 -11 -52 -77 -15 -38 -30 -67 -35
-65 -4 3 -20 37 -35 75 -16 42 -33 70 -42 70 -8 0 -12 -6 -9 -12z"/>
<path d="M6700 8954 c0 -72 3 -95 13 -92 8 3 13 34 15 96 2 77 0 92 -13 92
-12 0 -15 -16 -15 -96z"/>
<path d="M6789 9003 c44 -110 61 -143 74 -143 16 0 94 176 83 187 -10 10 -20
-6 -51 -80 -16 -37 -31 -64 -35 -60 -3 4 -19 38 -34 76 -16 37 -34 67 -42 67
-11 0 -10 -10 5 -47z"/>
<path d="M7312 8958 c2 -62 7 -93 16 -96 9 -3 12 20 12 92 0 80 -3 96 -15 96
-13 0 -15 -15 -13 -92z"/>
<path d="M7850 9044 c0 -3 14 -23 32 -45 l31 -39 -31 -39 c-53 -66 -39 -86 16
-24 l32 38 33 -38 c54 -62 68 -42 15 24 l-31 39 31 39 c18 22 32 42 32 45 0
16 -27 2 -52 -26 l-28 -33 -28 33 c-25 28 -52 42 -52 26z"/>
<path d="M8295 9025 c-42 -41 -29 -131 22 -154 41 -19 103 -7 103 20 0 6 -7 6
-19 -1 -52 -27 -101 6 -101 68 0 54 26 77 80 68 39 -6 56 6 24 18 -36 14 -85
6 -109 -19z"/>
<path d="M8703 9038 c2 -7 19 -48 38 -91 30 -72 31 -81 20 -114 -13 -35 -10
-50 7 -39 13 8 115 246 108 253 -11 11 -26 -11 -52 -77 -15 -38 -30 -67 -35
-65 -4 3 -20 37 -35 75 -16 42 -33 70 -42 70 -8 0 -12 -6 -9 -12z"/>
<path d="M2370 8459 c0 -108 3 -140 13 -137 7 3 14 32 17 77 6 79 16 93 65 89
34 -3 42 -23 44 -110 1 -32 6 -58 11 -58 15 0 13 153 -3 174 -15 20 -63 24
-95 7 -21 -11 -22 -10 -22 44 0 42 -3 55 -15 55 -13 0 -15 -22 -15 -141z"/>
<path d="M3055 8590 c-8 -13 4 -32 16 -25 12 8 12 35 0 35 -6 0 -13 -4 -16
-10z"/>
<path d="M4180 8538 c0 -60 0 -61 -20 -43 -30 27 -80 22 -109 -11 -20 -23 -22
-35 -18 -78 7 -77 67 -111 125 -70 20 14 22 14 22 -1 0 -9 6 -15 13 -13 9 3
13 43 15 141 2 117 0 137 -13 137 -12 0 -15 -13 -15 -62z m-16 -70 c34 -49 7
-128 -44 -128 -51 0 -83 96 -44 134 23 24 70 20 88 -6z"/>
<path d="M2820 8540 c0 -23 -4 -30 -20 -30 -11 0 -20 -4 -20 -10 0 -5 9 -10
20 -10 18 0 20 -7 20 -68 0 -77 16 -102 63 -102 35 0 44 18 10 22 -35 4 -53
38 -53 101 l0 47 35 0 c44 0 46 18 3 22 -28 2 -34 8 -36 31 -4 37 -22 35 -22
-3z"/>
<path d="M3157 8563 c-4 -3 -7 -17 -7 -30 0 -14 -6 -23 -15 -23 -8 0 -15 -4
-15 -10 0 -5 7 -10 15 -10 11 0 15 -12 15 -49 0 -53 14 -101 33 -113 18 -11
67 -10 67 2 0 6 -9 10 -19 10 -36 0 -51 27 -51 91 0 59 0 59 29 59 17 0 33 5
36 10 4 6 -8 10 -29 10 -33 0 -36 2 -36 30 0 29 -9 38 -23 23z"/>
<path d="M3465 8512 c-11 -2 -26 -9 -34 -16 -11 -8 -15 -8 -18 2 -3 6 -9 12
-14 12 -5 0 -9 -43 -9 -96 0 -72 3 -95 13 -92 7 3 13 30 15 73 3 78 13 95 52
95 39 0 49 -17 52 -95 2 -43 8 -70 16 -73 9 -3 12 16 12 75 0 43 -4 83 -8 90
-10 16 -53 30 -77 25z"/>
<path d="M3675 8512 c-29 -6 -62 -40 -68 -69 -7 -37 10 -90 36 -108 27 -19 87
-19 113 -1 24 18 13 31 -14 17 -33 -17 -67 -13 -90 12 -36 38 -28 46 51 49 70
3 72 4 69 28 -8 55 -44 82 -97 72z m63 -40 c25 -32 15 -42 -48 -42 -64 0 -66
1 -49 31 20 38 70 43 97 11z"/>
<path d="M3883 8512 c-51 -8 -84 -109 -50 -153 28 -36 88 -50 128 -29 33 18
21 28 -21 16 -46 -12 -68 -3 -87 35 l-12 24 72 5 72 5 -2 29 c-4 50 -43 77
-100 68z m55 -28 c12 -8 22 -24 22 -35 0 -17 -7 -19 -60 -19 -57 0 -59 1 -51
23 7 18 43 46 61 47 3 0 16 -7 28 -16z"/>
<path d="M2020 8498 c2 -30 66 -173 79 -173 8 0 25 32 42 75 21 57 30 70 34
55 20 -64 53 -130 65 -130 9 0 26 31 42 75 41 110 41 110 25 110 -7 0 -19 -18
-26 -39 -6 -22 -18 -56 -27 -77 l-16 -39 -27 75 c-32 87 -52 99 -69 41 -7 -21
-19 -56 -28 -77 l-16 -39 -27 74 c-24 67 -52 105 -51 69z"/>
<path d="M2613 8503 c-31 -12 -9 -22 37 -16 47 5 50 4 60 -21 14 -37 15 -36
-30 -36 -21 0 -51 -5 -65 -12 -50 -23 -20 -98 40 -98 11 0 31 7 43 16 20 14
22 14 22 0 0 -9 5 -16 10 -16 6 0 10 33 10 79 0 95 -11 111 -73 110 -23 0 -48
-3 -54 -6z m102 -115 c-4 -13 -14 -29 -24 -36 -22 -18 -65 -11 -69 11 -7 36 6
47 53 47 43 0 46 -1 40 -22z"/>
<path d="M3052 8418 c2 -62 7 -93 16 -96 9 -3 12 20 12 92 0 80 -3 96 -15 96
-13 0 -15 -15 -13 -92z"/>
<path d="M4286 8497 c-12 -9 -17 -23 -14 -42 3 -26 9 -32 53 -46 42 -13 50
-20 50 -40 0 -20 -6 -25 -32 -27 -18 -2 -41 2 -52 7 -13 7 -22 8 -26 1 -3 -6
6 -15 20 -20 64 -24 129 1 123 48 -2 22 -11 30 -52 43 -54 18 -74 40 -52 58
18 15 42 16 81 6 27 -8 29 -7 16 8 -16 21 -89 23 -115 4z"/>
<path d="M4462 8343 c5 -25 28 -28 28 -4 0 12 -6 21 -16 21 -9 0 -14 -7 -12
-17z"/>
<path d="M19977 8050 c-3 -47 -10 -105 -16 -130 -7 -25 -14 -65 -16 -90 -5
-43 -4 -42 16 20 28 85 44 219 32 257 -9 24 -11 15 -16 -57z"/>
<path d="M20907 7493 c-4 -3 -7 -16 -6 -27 0 -19 1 -19 10 3 10 24 8 36 -4 24z"/>
<path d="M20876 7413 c-6 -14 -5 -15 5 -6 7 7 10 15 7 18 -3 3 -9 -2 -12 -12z"/>
<path d="M2410 6404 c-197 -42 -353 -200 -395 -399 -18 -88 -18 -122 0 -210
42 -201 199 -358 400 -400 105 -22 3005 -22 3110 0 201 42 358 199 400 400 8
39 15 86 15 105 0 19 -7 67 -15 105 -42 201 -199 358 -400 400 -102 21 -3015
21 -3115 -1z m758 -487 l3 -97 49 0 c43 0 50 -3 50 -20 0 -18 -7 -20 -75 -20
l-75 0 0 113 c0 63 3 117 7 121 4 4 14 5 23 4 12 -3 16 -22 18 -101z m257 21
c15 -14 27 -35 28 -53 2 -30 2 -30 -56 -33 -59 -3 -69 -14 -34 -36 12 -8 22
-7 37 2 27 16 50 15 50 -3 0 -37 -99 -51 -132 -17 -11 10 -22 38 -25 60 -5 36
-2 45 25 72 36 36 71 39 107 8z m186 3 c19 -16 24 -30 27 -90 l4 -71 -41 2
c-23 1 -44 -1 -47 -5 -13 -13 -64 16 -70 39 -9 34 18 61 67 69 21 4 39 11 39
16 0 17 -31 22 -56 9 -45 -25 -54 13 -9 38 30 17 60 14 86 -7z m109 7 c0 -9 3
-9 12 0 19 19 48 15 48 -8 0 -13 -7 -20 -18 -20 -31 0 -42 -22 -42 -82 0 -55
-1 -58 -25 -58 -25 0 -25 1 -25 83 0 46 3 87 7 90 11 12 43 8 43 -5z m125 2
c5 -8 11 -7 20 0 22 18 71 3 84 -26 6 -14 11 -52 11 -84 0 -57 -1 -60 -25 -60
-23 0 -24 3 -27 68 -3 64 -4 67 -28 67 -24 0 -25 -3 -28 -67 -3 -65 -4 -68
-27 -68 -25 0 -25 1 -25 90 0 82 2 90 19 90 11 0 23 -5 26 -10z m271 -1 c4 -8
9 -8 17 0 16 16 48 14 67 -4 15 -14 18 -14 30 0 16 20 49 19 72 -2 14 -13 18
-31 18 -90 0 -66 -2 -73 -20 -73 -18 0 -20 7 -20 64 0 57 -2 65 -21 71 -30 10
-39 -9 -39 -77 0 -51 -2 -58 -20 -58 -18 0 -20 7 -20 58 0 65 -9 85 -36 80
-16 -3 -19 -14 -22 -71 -3 -64 -4 -67 -27 -67 -25 0 -25 2 -25 83 0 46 3 87 7
90 10 11 31 8 39 -4z m366 0 c32 -17 49 -69 37 -113 -21 -75 -125 -82 -155
-10 -35 83 42 164 118 123z m118 -1 c0 -9 3 -9 12 0 19 19 48 15 48 -8 0 -11
-6 -20 -14 -20 -30 0 -46 -30 -46 -86 0 -47 -2 -54 -20 -54 -19 0 -20 7 -20
90 0 83 1 90 20 90 11 0 20 -5 20 -12z m204 -10 c14 -13 26 -36 28 -53 3 -30
3 -30 -54 -33 -59 -3 -69 -10 -43 -32 11 -9 22 -9 49 1 44 16 57 5 29 -22 -31
-31 -91 -28 -120 6 -70 81 32 204 111 133z"/>
<path d="M3347 5914 c-15 -16 -5 -24 29 -24 24 0 34 4 32 13 -5 13 -50 22 -61
11z"/>
<path d="M3553 5853 c-15 -3 -23 -12 -23 -24 0 -22 29 -26 48 -7 13 13 16 39
5 37 -5 -1 -18 -4 -30 -6z"/>
<path d="M4409 5896 c-21 -46 7 -95 46 -80 38 15 25 104 -15 104 -12 0 -25
-10 -31 -24z"/>
<path d="M4727 5914 c-15 -16 -5 -24 29 -24 24 0 34 4 32 13 -5 13 -50 22 -61
11z"/>
</g>
</svg>
